{
  "patterns": {
    "medium-swing": [
      {
        "id": "medium-swing_1",
        "measures": [
          [
            {
              "pitch": 38,
              "beatStart": 0.0,
              "velocity": 42
            },
            {
              "pitch": 51,
              "beatStart": 0.0,
              "velocity": 71
            },
            {
              "pitch": 21,
              "beatStart": 0.9917,
              "velocity": 50
            },
            {
              "pitch": 51,
              "beatStart": 0.9917,
              "velocity": 65
            },
            {
              "pitch": 36,
              "beatStart": 1.6833,
              "velocity": 59
            },
            {
              "pitch": 51,
              "beatStart": 1.6917,
              "velocity": 63
            },
            {
              "pitch": 51,
              "beatStart": 2.0083,
              "velocity": 56
            },
            {
              "pitch": 21,
              "beatStart": 2.975,
              "velocity": 39
            },
            {
              "pitch": 51,
              "beatStart": 2.975,
              "velocity": 63
            },
            {
              "pitch": 38,
              "beatStart": 3.675,
              "velocity": 30
            },
            {
              "pitch": 51,
              "beatStart": 3.7,
              "velocity": 63
            }
          ],
          [
            {
              "pitch": 51,
              "beatStart": 0.0167,
              "velocity": 52
            },
            {
              "pitch": 38,
              "beatStart": 0.6917,
              "velocity": 50
            },
            {
              "pitch": 21,
              "beatStart": 1.0,
              "velocity": 48
            },
            {
              "pitch": 51,
              "beatStart": 1.0167,
              "velocity": 64
            },
            {
              "pitch": 51,
              "beatStart": 1.7167,
              "velocity": 58
            },
            {
              "pitch": 51,
              "beatStart": 2.05,
              "velocity": 63
            },
            {
              "pitch": 38,
              "beatStart": 2.7,
              "velocity": 44
            },
            {
              "pitch": 38,
              "beatStart": 2.775,
              "velocity": 34
            },
            {
              "pitch": 38,
              "beatStart": 2.8333,
              "velocity": 26
            },
            {
              "pitch": 38,
              "beatStart": 2.875,
              "velocity": 21
            },
            {
              "pitch": 21,
              "beatStart": 3.0083,
              "velocity": 48
            },
            {
              "pitch": 51,
              "beatStart": 3.025,
              "velocity": 65
            },
            {
              "pitch": 36,
              "beatStart": 3.6833,
              "velocity": 57
            },
            {
              "pitch": 51,
              "beatStart": 3.6833,
              "velocity": 63
            }
          ],
          [
            {
              "pitch": 51,
              "beatStart": 0.025,
              "velocity": 51
            },
            {
              "pitch": 36,
              "beatStart": 0.6833,
              "velocity": 54
            },
            {
              "pitch": 21,
              "beatStart": 1.0083,
              "velocity": 44
            },
            {
              "pitch": 51,
              "beatStart": 1.0167,
              "velocity": 62
            },
            {
              "pitch": 51,
              "beatStart": 1.6833,
              "velocity": 54
            },
            {
              "pitch": 51,
              "beatStart": 1.9917,
              "velocity": 62
            },
            {
              "pitch": 38,
              "beatStart": 2.6833,
              "velocity": 29
            },
            {
              "pitch": 21,
              "beatStart": 2.9833,
              "velocity": 48
            },
            {
              "pitch": 51,
              "beatStart": 3.0,
              "velocity": 61
            },
            {
              "pitch": 38,
              "beatStart": 3.0083,
              "velocity": 39
            },
            {
              "pitch": 36,
              "beatStart": 3.6667,
              "velocity": 54
            },
            {
              "pitch": 116,
              "beatStart": 3.6917,
              "velocity": 67
            }
          ],
          [
            {
              "pitch": 38,
              "beatStart": 0.6833,
              "velocity": 34
            },
            {
              "pitch": 21,
              "beatStart": 0.9917,
              "velocity": 39
            },
            {
              "pitch": 51,
              "beatStart": 1.025,
              "velocity": 62
            },
            {
              "pitch": 38,
              "beatStart": 1.6833,
              "velocity": 31
            },
            {
              "pitch": 51,
              "beatStart": 1.6917,
              "velocity": 66
            },
            {
              "pitch": 51,
              "beatStart": 2.025,
              "velocity": 55
            },
            {
              "pitch": 38,
              "beatStart": 2.0333,
              "velocity": 26
            },
            {
              "pitch": 36,
              "beatStart": 2.6667,
              "velocity": 62
            },
            {
              "pitch": 59,
              "beatStart": 2.6833,
              "velocity": 68
            },
            {
              "pitch": 21,
              "beatStart": 3.0083,
              "velocity": 48
            },
            {
              "pitch": 38,
              "beatStart": 3.7083,
              "velocity": 25
            }
          ],
          [
            {
              "pitch": 51,
              "beatStart": 0.0083,
              "velocity": 58
            },
            {
              "pitch": 21,
              "beatStart": 0.9667,
              "velocity": 52
            },
            {
              "pitch": 38,
              "beatStart": 0.9917,
              "velocity": 46
            },
            {
              "pitch": 51,
              "beatStart": 0.9917,
              "velocity": 71
            },
            {
              "pitch": 51,
              "beatStart": 1.7,
              "velocity": 62
            },
            {
              "pitch": 51,
              "beatStart": 2.0083,
              "velocity": 58
            },
            {
              "pitch": 38,
              "beatStart": 2.675,
              "velocity": 22
            },
            {
              "pitch": 21,
              "beatStart": 2.9583,
              "velocity": 48
            },
            {
              "pitch": 51,
              "beatStart": 2.9833,
              "velocity": 67
            },
            {
              "pitch": 29,
              "beatStart": 3.625,
              "velocity": 88
            },
            {
              "pitch": 38,
              "beatStart": 3.625,
              "velocity": 47
            }
          ],
          [
            {
              "pitch": 38,
              "beatStart": 0.6833,
              "velocity": 26
            },
            {
              "pitch": 21,
              "beatStart": 1.0,
              "velocity": 48
            },
            {
              "pitch": 51,
              "beatStart": 1.0,
              "velocity": 66
            },
            {
              "pitch": 51,
              "beatStart": 1.675,
              "velocity": 56
            },
            {
              "pitch": 38,
              "beatStart": 1.6833,
              "velocity": 28
            },
            {
              "pitch": 38,
              "beatStart": 2.0167,
              "velocity": 23
            },
            {
              "pitch": 51,
              "beatStart": 2.0167,
              "velocity": 69
            },
            {
              "pitch": 36,
              "beatStart": 2.6667,
              "velocity": 59
            },
            {
              "pitch": 116,
              "beatStart": 2.6833,
              "velocity": 65
            },
            {
              "pitch": 21,
              "beatStart": 2.9833,
              "velocity": 48
            },
            {
              "pitch": 38,
              "beatStart": 3.6833,
              "velocity": 31
            }
          ],
          [
            {
              "pitch": 51,
              "beatStart": 0.0167,
              "velocity": 58
            },
            {
              "pitch": 51,
              "beatStart": 0.6833,
              "velocity": 56
            },
            {
              "pitch": 38,
              "beatStart": 0.6917,
              "velocity": 31
            },
            {
              "pitch": 21,
              "beatStart": 1.0,
              "velocity": 48
            },
            {
              "pitch": 51,
              "beatStart": 1.0167,
              "velocity": 68
            },
            {
              "pitch": 38,
              "beatStart": 1.025,
              "velocity": 29
            },
            {
              "pitch": 36,
              "beatStart": 1.6667,
              "velocity": 59
            },
            {
              "pitch": 59,
              "beatStart": 1.6667,
              "velocity": 79
            },
            {
              "pitch": 38,
              "beatStart": 2.6833,
              "velocity": 45
            },
            {
              "pitch": 21,
              "beatStart": 2.9833,
              "velocity": 44
            },
            {
              "pitch": 51,
              "beatStart": 3.0167,
              "velocity": 63
            },
            {
              "pitch": 51,
              "beatStart": 3.6667,
              "velocity": 54
            },
            {
              "pitch": 38,
              "beatStart": 3.675,
              "velocity": 34
            }
          ],
          [
            {
              "pitch": 51,
              "beatStart": 0.0,
              "velocity": 69
            },
            {
              "pitch": 38,
              "beatStart": 0.0083,
              "velocity": 29
            },
            {
              "pitch": 36,
              "beatStart": 0.65,
              "velocity": 56
            },
            {
              "pitch": 59,
              "beatStart": 0.6667,
              "velocity": 67
            },
            {
              "pitch": 21,
              "beatStart": 0.9833,
              "velocity": 44
            },
            {
              "pitch": 36,
              "beatStart": 1.6667,
              "velocity": 66
            },
            {
              "pitch": 59,
              "beatStart": 1.675,
              "velocity": 67
            },
            {
              "pitch": 38,
              "beatStart": 2.6833,
              "velocity": 56
            },
            {
              "pitch": 21,
              "beatStart": 2.9833,
              "velocity": 48
            },
            {
              "pitch": 36,
              "beatStart": 3.0083,
              "velocity": 66
            },
            {
              "pitch": 57,
              "beatStart": 3.0167,
              "velocity": 78
            }
          ]
        ]
      },
      {
        "id": "medium-swing_2",
        "measures": [
          [
            {
              "pitch": 38,
              "beatStart": 0.0,
              "velocity": 38
            },
            {
              "pitch": 51,
              "beatStart": 0.0,
              "velocity": 68
            },
            {
              "pitch": 38,
              "beatStart": 0.6833,
              "velocity": 33
            },
            {
              "pitch": 36,
              "beatStart": 0.9917,
              "velocity": 56
            },
            {
              "pitch": 21,
              "beatStart": 1.0083,
              "velocity": 50
            },
            {
              "pitch": 51,
              "beatStart": 1.0083,
              "velocity": 90
            },
            {
              "pitch": 51,
              "beatStart": 1.7167,
              "velocity": 53
            },
            {
              "pitch": 51,
              "beatStart": 2.0417,
              "velocity": 64
            },
            {
              "pitch": 38,
              "beatStart": 2.6917,
              "velocity": 31
            },
            {
              "pitch": 38,
              "beatStart": 3.0167,
              "velocity": 37
            },
            {
              "pitch": 21,
              "beatStart": 3.025,
              "velocity": 47
            },
            {
              "pitch": 51,
              "beatStart": 3.0417,
              "velocity": 69
            },
            {
              "pitch": 36,
              "beatStart": 3.675,
              "velocity": 56
            },
            {
              "pitch": 116,
              "beatStart": 3.7083,
              "velocity": 71
            }
          ],
          [
            {
              "pitch": 38,
              "beatStart": 0.675,
              "velocity": 37
            },
            {
              "pitch": 21,
              "beatStart": 0.9917,
              "velocity": 58
            },
            {
              "pitch": 51,
              "beatStart": 1.0083,
              "velocity": 68
            },
            {
              "pitch": 38,
              "beatStart": 1.675,
              "velocity": 33
            },
            {
              "pitch": 51,
              "beatStart": 1.6917,
              "velocity": 61
            },
            {
              "pitch": 38,
              "beatStart": 2.0083,
              "velocity": 27
            },
            {
              "pitch": 51,
              "beatStart": 2.0167,
              "velocity": 62
            },
            {
              "pitch": 36,
              "beatStart": 2.6667,
              "velocity": 24
            },
            {
              "pitch": 21,
              "beatStart": 2.9917,
              "velocity": 41
            },
            {
              "pitch": 36,
              "beatStart": 3.0,
              "velocity": 66
            },
            {
              "pitch": 59,
              "beatStart": 3.0,
              "velocity": 66
            },
            {
              "pitch": 38,
              "beatStart": 3.6833,
              "velocity": 29
            }
          ],
          [
            {
              "pitch": 51,
              "beatStart": 0.0083,
              "velocity": 48
            },
            {
              "pitch": 29,
              "beatStart": 0.6833,
              "velocity": 83
            },
            {
              "pitch": 38,
              "beatStart": 0.6833,
              "velocity": 57
            },
            {
              "pitch": 21,
              "beatStart": 0.9667,
              "velocity": 54
            },
            {
              "pitch": 38,
              "beatStart": 1.6833,
              "velocity": 32
            },
            {
              "pitch": 51,
              "beatStart": 2.0,
              "velocity": 67
            },
            {
              "pitch": 51,
              "beatStart": 2.65,
              "velocity": 58
            },
            {
              "pitch": 38,
              "beatStart": 2.6667,
              "velocity": 42
            },
            {
              "pitch": 21,
              "beatStart": 2.9833,
              "velocity": 47
            },
            {
              "pitch": 38,
              "beatStart": 2.9917,
              "velocity": 40
            },
            {
              "pitch": 51,
              "beatStart": 2.9917,
              "velocity": 65
            },
            {
              "pitch": 36,
              "beatStart": 3.7083,
              "velocity": 21
            }
          ],
          [
            {
              "pitch": 51,
              "beatStart": 0.0083,
              "velocity": 72
            },
            {
              "pitch": 36,
              "beatStart": 0.0167,
              "velocity": 64
            },
            {
              "pitch": 38,
              "beatStart": 0.6917,
              "velocity": 49
            },
            {
              "pitch": 21,
              "beatStart": 1.0083,
              "velocity": 43
            },
            {
              "pitch": 51,
              "beatStart": 1.0333,
              "velocity": 61
            },
            {
              "pitch": 36,
              "beatStart": 1.7083,
              "velocity": 58
            },
            {
              "pitch": 116,
              "beatStart": 1.7417,
              "velocity": 74
            },
            {
              "pitch": 38,
              "beatStart": 2.0667,
              "velocity": 18
            },
            {
              "pitch": 36,
              "beatStart": 2.6833,
              "velocity": 22
            },
            {
              "pitch": 21,
              "beatStart": 3.0,
              "velocity": 41
            },
            {
              "pitch": 36,
              "beatStart": 3.0083,
              "velocity": 51
            },
            {
              "pitch": 51,
              "beatStart": 3.0083,
              "velocity": 61
            },
            {
              "pitch": 36,
              "beatStart": 3.6667,
              "velocity": 77
            },
            {
              "pitch": 59,
              "beatStart": 3.675,
              "velocity": 61
            }
          ],
          [
            {
              "pitch": 38,
              "beatStart": 0.6583,
              "velocity": 31
            },
            {
              "pitch": 21,
              "beatStart": 0.975,
              "velocity": 58
            },
            {
              "pitch": 51,
              "beatStart": 0.9917,
              "velocity": 61
            },
            {
              "pitch": 51,
              "beatStart": 1.6667,
              "velocity": 51
            },
            {
              "pitch": 51,
              "beatStart": 1.9917,
              "velocity": 61
            },
            {
              "pitch": 38,
              "beatStart": 2.0,
              "velocity": 42
            },
            {
              "pitch": 38,
              "beatStart": 2.3333,
              "velocity": 31
            },
            {
              "pitch": 36,
              "beatStart": 2.6333,
              "velocity": 28
            },
            {
              "pitch": 36,
              "beatStart": 2.9667,
              "velocity": 70
            },
            {
              "pitch": 21,
              "beatStart": 2.975,
              "velocity": 47
            },
            {
              "pitch": 59,
              "beatStart": 3.0,
              "velocity": 68
            }
          ],
          [
            {
              "pitch": 51,
              "beatStart": 0.0417,
              "velocity": 56
            },
            {
              "pitch": 21,
              "beatStart": 1.0167,
              "velocity": 54
            },
            {
              "pitch": 38,
              "beatStart": 1.025,
              "velocity": 45
            },
            {
              "pitch": 116,
              "beatStart": 1.0333,
              "velocity": 75
            },
            {
              "pitch": 38,
              "beatStart": 1.3667,
              "velocity": 27
            },
            {
              "pitch": 36,
              "beatStart": 1.6583,
              "velocity": 30
            },
            {
              "pitch": 36,
              "beatStart": 1.9833,
              "velocity": 66
            },
            {
              "pitch": 59,
              "beatStart": 2.0083,
              "velocity": 61
            },
            {
              "pitch": 38,
              "beatStart": 2.6667,
              "velocity": 37
            },
            {
              "pitch": 21,
              "beatStart": 3.0,
              "velocity": 54
            },
            {
              "pitch": 51,
              "beatStart": 3.0167,
              "velocity": 54
            },
            {
              "pitch": 59,
              "beatStart": 3.6667,
              "velocity": 93
            },
            {
              "pitch": 38,
              "beatStart": 3.675,
              "velocity": 72
            }
          ],
          [
            {
              "pitch": 38,
              "beatStart": 0.675,
              "velocity": 30
            },
            {
              "pitch": 21,
              "beatStart": 0.9917,
              "velocity": 58
            },
            {
              "pitch": 51,
              "beatStart": 1.0167,
              "velocity": 63
            },
            {
              "pitch": 51,
              "beatStart": 1.725,
              "velocity": 61
            },
            {
              "pitch": 51,
              "beatStart": 2.0333,
              "velocity": 69
            },
            {
              "pitch": 38,
              "beatStart": 2.2667,
              "velocity": 21
            },
            {
              "pitch": 38,
              "beatStart": 2.5083,
              "velocity": 34
            },
            {
              "pitch": 36,
              "beatStart": 2.75,
              "velocity": 28
            },
            {
              "pitch": 36,
              "beatStart": 3.0,
              "velocity": 72
            },
            {
              "pitch": 21,
              "beatStart": 3.0083,
              "velocity": 44
            },
            {
              "pitch": 59,
              "beatStart": 3.0167,
              "velocity": 61
            },
            {
              "pitch": 38,
              "beatStart": 3.6667,
              "velocity": 83
            }
          ],
          [
            {
              "pitch": 51,
              "beatStart": 0.0333,
              "velocity": 49
            },
            {
              "pitch": 36,
              "beatStart": 0.6833,
              "velocity": 81
            },
            {
              "pitch": 59,
              "beatStart": 0.7,
              "velocity": 90
            },
            {
              "pitch": 21,
              "beatStart": 1.0,
              "velocity": 51
            },
            {
              "pitch": 38,
              "beatStart": 1.2333,
              "velocity": 28
            },
            {
              "pitch": 48,
              "beatStart": 1.6833,
              "velocity": 87
            },
            {
              "pitch": 48,
              "beatStart": 2.0917,
              "velocity": 60
            },
            {
              "pitch": 43,
              "beatStart": 2.65,
              "velocity": 82
            },
            {
              "pitch": 21,
              "beatStart": 3.025,
              "velocity": 54
            },
            {
              "pitch": 43,
              "beatStart": 3.0417,
              "velocity": 70
            },
            {
              "pitch": 36,
              "beatStart": 3.65,
              "velocity": 86
            },
            {
              "pitch": 59,
              "beatStart": 3.6583,
              "velocity": 96
            }
          ]
        ]
      },
      {
        "id": "medium-swing_3",
        "measures": [
          [
            {
              "pitch": 36,
              "beatStart": 0.0,
              "velocity": 55
            },
            {
              "pitch": 51,
              "beatStart": 0.0,
              "velocity": 71
            },
            {
              "pitch": 38,
              "beatStart": 0.7083,
              "velocity": 25
            },
            {
              "pitch": 21,
              "beatStart": 1.0083,
              "velocity": 49
            },
            {
              "pitch": 51,
              "beatStart": 1.0083,
              "velocity": 71
            },
            {
              "pitch": 36,
              "beatStart": 1.6833,
              "velocity": 58
            },
            {
              "pitch": 51,
              "beatStart": 1.7,
              "velocity": 78
            },
            {
              "pitch": 29,
              "beatStart": 2.6917,
              "velocity": 75
            },
            {
              "pitch": 36,
              "beatStart": 2.6917,
              "velocity": 66
            },
            {
              "pitch": 21,
              "beatStart": 2.9917,
              "velocity": 46
            },
            {
              "pitch": 38,
              "beatStart": 3.6667,
              "velocity": 31
            }
          ],
          [
            {
              "pitch": 51,
              "beatStart": 0.0167,
              "velocity": 70
            },
            {
              "pitch": 29,
              "beatStart": 0.65,
              "velocity": 61
            },
            {
              "pitch": 36,
              "beatStart": 0.6583,
              "velocity": 68
            },
            {
              "pitch": 21,
              "beatStart": 0.975,
              "velocity": 49
            },
            {
              "pitch": 116,
              "beatStart": 1.6667,
              "velocity": 75
            },
            {
              "pitch": 36,
              "beatStart": 1.6833,
              "velocity": 59
            },
            {
              "pitch": 40,
              "beatStart": 2.6417,
              "velocity": 55
            },
            {
              "pitch": 21,
              "beatStart": 2.95,
              "velocity": 49
            },
            {
              "pitch": 51,
              "beatStart": 2.9833,
              "velocity": 63
            },
            {
              "pitch": 59,
              "beatStart": 3.6167,
              "velocity": 69
            },
            {
              "pitch": 36,
              "beatStart": 3.625,
              "velocity": 63
            }
          ],
          [
            {
              "pitch": 38,
              "beatStart": 0.65,
              "velocity": 35
            },
            {
              "pitch": 21,
              "beatStart": 0.9417,
              "velocity": 51
            },
            {
              "pitch": 51,
              "beatStart": 0.9667,
              "velocity": 75
            },
            {
              "pitch": 51,
              "beatStart": 1.65,
              "velocity": 52
            },
            {
              "pitch": 51,
              "beatStart": 1.975,
              "velocity": 67
            },
            {
              "pitch": 48,
              "beatStart": 2.225,
              "velocity": 56
            },
            {
              "pitch": 43,
              "beatStart": 2.9167,
              "velocity": 48
            },
            {
              "pitch": 51,
              "beatStart": 2.9417,
              "velocity": 71
            },
            {
              "pitch": 21,
              "beatStart": 2.95,
              "velocity": 51
            },
            {
              "pitch": 51,
              "beatStart": 3.6333,
              "velocity": 67
            },
            {
              "pitch": 82,
              "beatStart": 3.6333,
              "velocity": 65
            }
          ],
          [
            {
              "pitch": 43,
              "beatStart": 0.3083,
              "velocity": 62
            },
            {
              "pitch": 21,
              "beatStart": 0.95,
              "velocity": 51
            },
            {
              "pitch": 51,
              "beatStart": 0.9667,
              "velocity": 63
            },
            {
              "pitch": 48,
              "beatStart": 0.9833,
              "velocity": 81
            },
            {
              "pitch": 43,
              "beatStart": 1.6417,
              "velocity": 56
            },
            {
              "pitch": 116,
              "beatStart": 1.65,
              "velocity": 73
            },
            {
              "pitch": 36,
              "beatStart": 1.9667,
              "velocity": 53
            },
            {
              "pitch": 38,
              "beatStart": 2.7417,
              "velocity": 29
            },
            {
              "pitch": 38,
              "beatStart": 2.8417,
              "velocity": 49
            },
            {
              "pitch": 36,
              "beatStart": 2.9583,
              "velocity": 98
            },
            {
              "pitch": 59,
              "beatStart": 2.975,
              "velocity": 102
            },
            {
              "pitch": 21,
              "beatStart": 3.9833,
              "velocity": 43
            }
          ],
          [
            {
              "pitch": 60,
              "beatStart": 0.7167,
              "velocity": 80
            },
            {
              "pitch": 40,
              "beatStart": 1.0417,
              "velocity": 94
            },
            {
              "pitch": 51,
              "beatStart": 1.0417,
              "velocity": 108
            },
            {
              "pitch": 51,
              "beatStart": 1.7333,
              "velocity": 35
            },
            {
              "pitch": 51,
              "beatStart": 2.05,
              "velocity": 55
            },
            {
              "pitch": 38,
              "beatStart": 2.7167,
              "velocity": 46
            },
            {
              "pitch": 38,
              "beatStart": 2.8167,
              "velocity": 38
            },
            {
              "pitch": 38,
              "beatStart": 2.8917,
              "velocity": 30
            },
            {
              "pitch": 38,
              "beatStart": 2.9583,
              "velocity": 23
            },
            {
              "pitch": 38,
              "beatStart": 3.0167,
              "velocity": 20
            },
            {
              "pitch": 51,
              "beatStart": 3.05,
              "velocity": 56
            },
            {
              "pitch": 38,
              "beatStart": 3.125,
              "velocity": 14
            },
            {
              "pitch": 38,
              "beatStart": 3.1833,
              "velocity": 12
            },
            {
              "pitch": 38,
              "beatStart": 3.2333,
              "velocity": 11
            },
            {
              "pitch": 38,
              "beatStart": 3.3167,
              "velocity": 9
            },
            {
              "pitch": 36,
              "beatStart": 3.6667,
              "velocity": 75
            },
            {
              "pitch": 59,
              "beatStart": 3.675,
              "velocity": 65
            }
          ],
          [
            {
              "pitch": 36,
              "beatStart": 0.6667,
              "velocity": 72
            },
            {
              "pitch": 59,
              "beatStart": 0.6667,
              "velocity": 58
            },
            {
              "pitch": 38,
              "beatStart": 1.6333,
              "velocity": 30
            },
            {
              "pitch": 21,
              "beatStart": 1.975,
              "velocity": 51
            },
            {
              "pitch": 51,
              "beatStart": 1.975,
              "velocity": 73
            },
            {
              "pitch": 51,
              "beatStart": 2.675,
              "velocity": 59
            },
            {
              "pitch": 38,
              "beatStart": 2.6833,
              "velocity": 35
            },
            {
              "pitch": 51,
              "beatStart": 3.0083,
              "velocity": 59
            },
            {
              "pitch": 38,
              "beatStart": 3.0333,
              "velocity": 31
            },
            {
              "pitch": 36,
              "beatStart": 3.6333,
              "velocity": 65
            },
            {
              "pitch": 59,
              "beatStart": 3.6333,
              "velocity": 87
            }
          ],
          [
            {
              "pitch": 67,
              "beatStart": 0.7,
              "velocity": 76
            },
            {
              "pitch": 21,
              "beatStart": 1.0167,
              "velocity": 51
            },
            {
              "pitch": 51,
              "beatStart": 1.0333,
              "velocity": 81
            },
            {
              "pitch": 51,
              "beatStart": 1.7,
              "velocity": 61
            },
            {
              "pitch": 48,
              "beatStart": 2.0333,
              "velocity": 69
            },
            {
              "pitch": 51,
              "beatStart": 2.0417,
              "velocity": 73
            },
            {
              "pitch": 48,
              "beatStart": 2.375,
              "velocity": 49
            },
            {
              "pitch": 36,
              "beatStart": 2.6833,
              "velocity": 59
            },
            {
              "pitch": 43,
              "beatStart": 3.0,
              "velocity": 70
            },
            {
              "pitch": 51,
              "beatStart": 3.0,
              "velocity": 73
            },
            {
              "pitch": 21,
              "beatStart": 3.0083,
              "velocity": 43
            },
            {
              "pitch": 43,
              "beatStart": 3.3583,
              "velocity": 35
            },
            {
              "pitch": 36,
              "beatStart": 3.6417,
              "velocity": 54
            },
            {
              "pitch": 116,
              "beatStart": 3.9833,
              "velocity": 61
            }
          ],
          [
            {
              "pitch": 48,
              "beatStart": 0.0083,
              "velocity": 69
            },
            {
              "pitch": 48,
              "beatStart": 0.3417,
              "velocity": 52
            },
            {
              "pitch": 36,
              "beatStart": 0.65,
              "velocity": 53
            },
            {
              "pitch": 116,
              "beatStart": 0.9583,
              "velocity": 60
            },
            {
              "pitch": 82,
              "beatStart": 0.9667,
              "velocity": 59
            },
            {
              "pitch": 21,
              "beatStart": 0.975,
              "velocity": 27
            },
            {
              "pitch": 59,
              "beatStart": 1.6583,
              "velocity": 87
            },
            {
              "pitch": 82,
              "beatStart": 1.6833,
              "velocity": 92
            },
            {
              "pitch": 21,
              "beatStart": 2.0083,
              "velocity": 49
            },
            {
              "pitch": 38,
              "beatStart": 2.2667,
              "velocity": 37
            },
            {
              "pitch": 48,
              "beatStart": 2.5333,
              "velocity": 63
            },
            {
              "pitch": 43,
              "beatStart": 2.775,
              "velocity": 76
            },
            {
              "pitch": 43,
              "beatStart": 3.0417,
              "velocity": 59
            },
            {
              "pitch": 36,
              "beatStart": 3.2833,
              "velocity": 58
            },
            {
              "pitch": 43,
              "beatStart": 3.5333,
              "velocity": 54
            },
            {
              "pitch": 43,
              "beatStart": 3.75,
              "velocity": 69
            }
          ]
        ]
      },
      {
        "id": "medium-swing_4",
        "measures": [
          [
            {
              "pitch": 38,
              "beatStart": 0.0,
              "velocity": 39
            },
            {
              "pitch": 51,
              "beatStart": 0.0,
              "velocity": 65
            },
            {
              "pitch": 38,
              "beatStart": 0.675,
              "velocity": 38
            },
            {
              "pitch": 21,
              "beatStart": 0.9917,
              "velocity": 50
            },
            {
              "pitch": 51,
              "beatStart": 1.0,
              "velocity": 65
            },
            {
              "pitch": 36,
              "beatStart": 1.6833,
              "velocity": 59
            },
            {
              "pitch": 51,
              "beatStart": 1.6917,
              "velocity": 64
            },
            {
              "pitch": 51,
              "beatStart": 2.025,
              "velocity": 61
            },
            {
              "pitch": 38,
              "beatStart": 2.6833,
              "velocity": 29
            },
            {
              "pitch": 21,
              "beatStart": 2.9833,
              "velocity": 47
            },
            {
              "pitch": 51,
              "beatStart": 3.0,
              "velocity": 68
            },
            {
              "pitch": 51,
              "beatStart": 3.6667,
              "velocity": 55
            },
            {
              "pitch": 51,
              "beatStart": 3.9917,
              "velocity": 68
            },
            {
              "pitch": 67,
              "beatStart": 3.9917,
              "velocity": 71
            }
          ],
          [
            {
              "pitch": 21,
              "beatStart": 0.9583,
              "velocity": 50
            },
            {
              "pitch": 36,
              "beatStart": 0.9583,
              "velocity": 60
            },
            {
              "pitch": 51,
              "beatStart": 0.9833,
              "velocity": 76
            },
            {
              "pitch": 51,
              "beatStart": 1.9833,
              "velocity": 67
            },
            {
              "pitch": 29,
              "beatStart": 2.6667,
              "velocity": 73
            },
            {
              "pitch": 38,
              "beatStart": 2.6667,
              "velocity": 48
            },
            {
              "pitch": 21,
              "beatStart": 2.925,
              "velocity": 43
            },
            {
              "pitch": 38,
              "beatStart": 3.6583,
              "velocity": 22
            },
            {
              "pitch": 51,
              "beatStart": 3.9667,
              "velocity": 67
            }
          ],
          [
            {
              "pitch": 38,
              "beatStart": 0.675,
              "velocity": 27
            },
            {
              "pitch": 51,
              "beatStart": 0.675,
              "velocity": 57
            },
            {
              "pitch": 21,
              "beatStart": 0.9833,
              "velocity": 43
            },
            {
              "pitch": 51,
              "beatStart": 0.9917,
              "velocity": 61
            },
            {
              "pitch": 38,
              "beatStart": 1.0,
              "velocity": 30
            },
            {
              "pitch": 29,
              "beatStart": 1.6833,
              "velocity": 66
            },
            {
              "pitch": 36,
              "beatStart": 1.6917,
              "velocity": 54
            },
            {
              "pitch": 36,
              "beatStart": 2.6583,
              "velocity": 56
            },
            {
              "pitch": 116,
              "beatStart": 2.675,
              "velocity": 71
            },
            {
              "pitch": 21,
              "beatStart": 2.95,
              "velocity": 43
            },
            {
              "pitch": 38,
              "beatStart": 3.7,
              "velocity": 30
            }
          ],
          [
            {
              "pitch": 51,
              "beatStart": 0.0,
              "velocity": 67
            },
            {
              "pitch": 38,
              "beatStart": 0.6917,
              "velocity": 32
            },
            {
              "pitch": 51,
              "beatStart": 0.6917,
              "velocity": 61
            },
            {
              "pitch": 21,
              "beatStart": 0.975,
              "velocity": 47
            },
            {
              "pitch": 51,
              "beatStart": 1.0083,
              "velocity": 63
            },
            {
              "pitch": 38,
              "beatStart": 1.0167,
              "velocity": 33
            },
            {
              "pitch": 36,
              "beatStart": 1.7167,
              "velocity": 22
            },
            {
              "pitch": 36,
              "beatStart": 2.0167,
              "velocity": 76
            },
            {
              "pitch": 51,
              "beatStart": 2.0167,
              "velocity": 78
            },
            {
              "pitch": 38,
              "beatStart": 2.7083,
              "velocity": 28
            },
            {
              "pitch": 21,
              "beatStart": 2.9917,
              "velocity": 43
            },
            {
              "pitch": 51,
              "beatStart": 3.0333,
              "velocity": 57
            },
            {
              "pitch": 116,
              "beatStart": 3.6833,
              "velocity": 87
            },
            {
              "pitch": 40,
              "beatStart": 3.6917,
              "velocity": 74
            }
          ],
          [
            {
              "pitch": 38,
              "beatStart": 0.7,
              "velocity": 31
            },
            {
              "pitch": 21,
              "beatStart": 0.9833,
              "velocity": 43
            },
            {
              "pitch": 51,
              "beatStart": 1.0083,
              "velocity": 70
            },
            {
              "pitch": 51,
              "beatStart": 1.6583,
              "velocity": 53
            },
            {
              "pitch": 38,
              "beatStart": 1.9833,
              "velocity": 52
            },
            {
              "pitch": 51,
              "beatStart": 1.9833,
              "velocity": 68
            },
            {
              "pitch": 36,
              "beatStart": 2.6917,
              "velocity": 28
            },
            {
              "pitch": 21,
              "beatStart": 2.9833,
              "velocity": 39
            },
            {
              "pitch": 36,
              "beatStart": 2.9917,
              "velocity": 72
            },
            {
              "pitch": 59,
              "beatStart": 3.0083,
              "velocity": 98
            }
          ],
          [
            {
              "pitch": 51,
              "beatStart": 0.0083,
              "velocity": 40
            },
            {
              "pitch": 21,
              "beatStart": 0.9917,
              "velocity": 54
            },
            {
              "pitch": 40,
              "beatStart": 0.9917,
              "velocity": 76
            },
            {
              "pitch": 51,
              "beatStart": 0.9917,
              "velocity": 71
            },
            {
              "pitch": 51,
              "beatStart": 1.675,
              "velocity": 49
            },
            {
              "pitch": 51,
              "beatStart": 2.0,
              "velocity": 61
            },
            {
              "pitch": 36,
              "beatStart": 2.6833,
              "velocity": 21
            },
            {
              "pitch": 36,
              "beatStart": 2.9833,
              "velocity": 72
            },
            {
              "pitch": 59,
              "beatStart": 3.0,
              "velocity": 62
            },
            {
              "pitch": 60,
              "beatStart": 3.0,
              "velocity": 74
            }
          ],
          [
            {
              "pitch": 51,
              "beatStart": 0.025,
              "velocity": 47
            },
            {
              "pitch": 59,
              "beatStart": 0.6833,
              "velocity": 76
            },
            {
              "pitch": 38,
              "beatStart": 0.6917,
              "velocity": 85
            },
            {
              "pitch": 21,
              "beatStart": 0.975,
              "velocity": 50
            },
            {
              "pitch": 38,
              "beatStart": 1.7083,
              "velocity": 33
            },
            {
              "pitch": 51,
              "beatStart": 2.0333,
              "velocity": 60
            },
            {
              "pitch": 51,
              "beatStart": 2.6917,
              "velocity": 57
            },
            {
              "pitch": 38,
              "beatStart": 2.7083,
              "velocity": 36
            },
            {
              "pitch": 38,
              "beatStart": 3.0417,
              "velocity": 33
            },
            {
              "pitch": 51,
              "beatStart": 3.0417,
              "velocity": 60
            },
            {
              "pitch": 59,
              "beatStart": 3.6833,
              "velocity": 68
            },
            {
              "pitch": 36,
              "beatStart": 3.6917,
              "velocity": 65
            }
          ],
          [
            {
              "pitch": 38,
              "beatStart": 0.125,
              "velocity": 29
            },
            {
              "pitch": 38,
              "beatStart": 0.25,
              "velocity": 24
            },
            {
              "pitch": 38,
              "beatStart": 0.3333,
              "velocity": 21
            },
            {
              "pitch": 38,
              "beatStart": 0.4083,
              "velocity": 17
            },
            {
              "pitch": 38,
              "beatStart": 0.4583,
              "velocity": 15
            },
            {
              "pitch": 38,
              "beatStart": 0.4917,
              "velocity": 14
            },
            {
              "pitch": 38,
              "beatStart": 0.55,
              "velocity": 12
            },
            {
              "pitch": 59,
              "beatStart": 0.7083,
              "velocity": 58
            },
            {
              "pitch": 36,
              "beatStart": 0.7167,
              "velocity": 62
            },
            {
              "pitch": 38,
              "beatStart": 1.0167,
              "velocity": 25
            },
            {
              "pitch": 38,
              "beatStart": 1.1167,
              "velocity": 21
            },
            {
              "pitch": 38,
              "beatStart": 1.1917,
              "velocity": 18
            },
            {
              "pitch": 38,
              "beatStart": 1.2583,
              "velocity": 15
            },
            {
              "pitch": 38,
              "beatStart": 1.3167,
              "velocity": 12
            },
            {
              "pitch": 59,
              "beatStart": 1.675,
              "velocity": 79
            },
            {
              "pitch": 36,
              "beatStart": 1.6917,
              "velocity": 70
            },
            {
              "pitch": 38,
              "beatStart": 2.0167,
              "velocity": 31
            },
            {
              "pitch": 38,
              "beatStart": 2.1417,
              "velocity": 24
            },
            {
              "pitch": 38,
              "beatStart": 2.2333,
              "velocity": 20
            },
            {
              "pitch": 38,
              "beatStart": 2.3083,
              "velocity": 16
            },
            {
              "pitch": 82,
              "beatStart": 2.4,
              "velocity": 79
            },
            {
              "pitch": 38,
              "beatStart": 2.7,
              "velocity": 52
            },
            {
              "pitch": 43,
              "beatStart": 3.0167,
              "velocity": 61
            },
            {
              "pitch": 43,
              "beatStart": 3.3417,
              "velocity": 71
            },
            {
              "pitch": 36,
              "beatStart": 3.65,
              "velocity": 45
            }
          ]
        ]
      }
    ],
    "medium-up-swing": [
      {
        "id": "medium-up-swing_1",
        "measures": [
          [
            {
              "pitch": 36,
              "beatStart": 0.0,
              "velocity": 40
            },
            {
              "pitch": 51,
              "beatStart": 0.0,
              "velocity": 71
            },
            {
              "pitch": 21,
              "beatStart": 1.0,
              "velocity": 64
            },
            {
              "pitch": 51,
              "beatStart": 1.0083,
              "velocity": 63
            },
            {
              "pitch": 38,
              "beatStart": 1.7,
              "velocity": 39
            },
            {
              "pitch": 51,
              "beatStart": 1.7,
              "velocity": 83
            },
            {
              "pitch": 38,
              "beatStart": 2.6917,
              "velocity": 29
            },
            {
              "pitch": 51,
              "beatStart": 3.0083,
              "velocity": 71
            },
            {
              "pitch": 21,
              "beatStart": 3.0167,
              "velocity": 69
            },
            {
              "pitch": 38,
              "beatStart": 3.7,
              "velocity": 21
            },
            {
              "pitch": 51,
              "beatStart": 3.7167,
              "velocity": 50
            },
            {
              "pitch": 38,
              "beatStart": 3.9917,
              "velocity": 28
            }
          ],
          [
            {
              "pitch": 51,
              "beatStart": 0.0167,
              "velocity": 57
            },
            {
              "pitch": 51,
              "beatStart": 0.9917,
              "velocity": 96
            },
            {
              "pitch": 38,
              "beatStart": 1.0,
              "velocity": 64
            },
            {
              "pitch": 21,
              "beatStart": 1.0083,
              "velocity": 64
            },
            {
              "pitch": 51,
              "beatStart": 1.725,
              "velocity": 54
            },
            {
              "pitch": 51,
              "beatStart": 2.0333,
              "velocity": 62
            },
            {
              "pitch": 38,
              "beatStart": 2.675,
              "velocity": 26
            },
            {
              "pitch": 21,
              "beatStart": 2.9667,
              "velocity": 64
            },
            {
              "pitch": 51,
              "beatStart": 2.9833,
              "velocity": 63
            },
            {
              "pitch": 38,
              "beatStart": 3.65,
              "velocity": 39
            },
            {
              "pitch": 51,
              "beatStart": 3.6667,
              "velocity": 81
            }
          ],
          [
            {
              "pitch": 38,
              "beatStart": 0.65,
              "velocity": 47
            },
            {
              "pitch": 21,
              "beatStart": 0.95,
              "velocity": 69
            },
            {
              "pitch": 51,
              "beatStart": 0.9667,
              "velocity": 67
            },
            {
              "pitch": 51,
              "beatStart": 1.6667,
              "velocity": 53
            },
            {
              "pitch": 38,
              "beatStart": 2.0083,
              "velocity": 47
            },
            {
              "pitch": 51,
              "beatStart": 2.0083,
              "velocity": 77
            },
            {
              "pitch": 36,
              "beatStart": 2.6833,
              "velocity": 36
            },
            {
              "pitch": 21,
              "beatStart": 3.0,
              "velocity": 59
            },
            {
              "pitch": 51,
              "beatStart": 3.05,
              "velocity": 58
            },
            {
              "pitch": 36,
              "beatStart": 3.675,
              "velocity": 58
            },
            {
              "pitch": 51,
              "beatStart": 3.6833,
              "velocity": 71
            }
          ],
          [
            {
              "pitch": 51,
              "beatStart": 0.025,
              "velocity": 59
            },
            {
              "pitch": 38,
              "beatStart": 0.6667,
              "velocity": 31
            },
            {
              "pitch": 51,
              "beatStart": 0.9917,
              "velocity": 61
            },
            {
              "pitch": 21,
              "beatStart": 1.0,
              "velocity": 69
            },
            {
              "pitch": 51,
              "beatStart": 1.65,
              "velocity": 78
            },
            {
              "pitch": 38,
              "beatStart": 1.6583,
              "velocity": 46
            },
            {
              "pitch": 38,
              "beatStart": 2.6417,
              "velocity": 56
            },
            {
              "pitch": 21,
              "beatStart": 2.95,
              "velocity": 69
            },
            {
              "pitch": 51,
              "beatStart": 2.975,
              "velocity": 58
            },
            {
              "pitch": 51,
              "beatStart": 3.6167,
              "velocity": 79
            },
            {
              "pitch": 36,
              "beatStart": 3.625,
              "velocity": 52
            }
          ],
          [
            {
              "pitch": 38,
              "beatStart": 0.6417,
              "velocity": 35
            },
            {
              "pitch": 21,
              "beatStart": 0.9583,
              "velocity": 69
            },
            {
              "pitch": 51,
              "beatStart": 0.9833,
              "velocity": 62
            },
            {
              "pitch": 51,
              "beatStart": 1.65,
              "velocity": 56
            },
            {
              "pitch": 38,
              "beatStart": 1.6667,
              "velocity": 27
            },
            {
              "pitch": 38,
              "beatStart": 1.975,
              "velocity": 29
            },
            {
              "pitch": 51,
              "beatStart": 1.975,
              "velocity": 66
            },
            {
              "pitch": 36,
              "beatStart": 2.6333,
              "velocity": 26
            },
            {
              "pitch": 21,
              "beatStart": 2.9667,
              "velocity": 56
            },
            {
              "pitch": 36,
              "beatStart": 2.9667,
              "velocity": 66
            },
            {
              "pitch": 59,
              "beatStart": 2.9667,
              "velocity": 88
            }
          ],
          [
            {
              "pitch": 51,
              "beatStart": 0.0083,
              "velocity": 46
            },
            {
              "pitch": 51,
              "beatStart": 0.6667,
              "velocity": 85
            },
            {
              "pitch": 38,
              "beatStart": 0.6833,
              "velocity": 41
            },
            {
              "pitch": 21,
              "beatStart": 0.9333,
              "velocity": 69
            },
            {
              "pitch": 38,
              "beatStart": 1.65,
              "velocity": 32
            },
            {
              "pitch": 51,
              "beatStart": 1.9583,
              "velocity": 69
            },
            {
              "pitch": 38,
              "beatStart": 2.65,
              "velocity": 48
            },
            {
              "pitch": 51,
              "beatStart": 2.6583,
              "velocity": 51
            },
            {
              "pitch": 21,
              "beatStart": 2.9833,
              "velocity": 69
            },
            {
              "pitch": 51,
              "beatStart": 2.9833,
              "velocity": 62
            },
            {
              "pitch": 38,
              "beatStart": 2.9917,
              "velocity": 32
            },
            {
              "pitch": 59,
              "beatStart": 3.6583,
              "velocity": 48
            },
            {
              "pitch": 36,
              "beatStart": 3.675,
              "velocity": 36
            }
          ],
          [
            {
              "pitch": 36,
              "beatStart": 0.625,
              "velocity": 58
            },
            {
              "pitch": 59,
              "beatStart": 0.6583,
              "velocity": 78
            },
            {
              "pitch": 21,
              "beatStart": 0.975,
              "velocity": 69
            },
            {
              "pitch": 38,
              "beatStart": 1.7083,
              "velocity": 37
            },
            {
              "pitch": 51,
              "beatStart": 2.0167,
              "velocity": 58
            },
            {
              "pitch": 51,
              "beatStart": 2.7167,
              "velocity": 49
            },
            {
              "pitch": 38,
              "beatStart": 2.7333,
              "velocity": 33
            },
            {
              "pitch": 21,
              "beatStart": 3.025,
              "velocity": 69
            },
            {
              "pitch": 38,
              "beatStart": 3.05,
              "velocity": 39
            },
            {
              "pitch": 51,
              "beatStart": 3.0583,
              "velocity": 62
            },
            {
              "pitch": 59,
              "beatStart": 3.6917,
              "velocity": 61
            },
            {
              "pitch": 36,
              "beatStart": 3.7,
              "velocity": 55
            }
          ],
          [
            {
              "pitch": 38,
              "beatStart": 0.7083,
              "velocity": 47
            },
            {
              "pitch": 21,
              "beatStart": 1.0,
              "velocity": 69
            },
            {
              "pitch": 51,
              "beatStart": 1.0333,
              "velocity": 72
            },
            {
              "pitch": 38,
              "beatStart": 1.7083,
              "velocity": 35
            },
            {
              "pitch": 51,
              "beatStart": 1.7083,
              "velocity": 41
            },
            {
              "pitch": 51,
              "beatStart": 2.0083,
              "velocity": 63
            },
            {
              "pitch": 38,
              "beatStart": 2.0167,
              "velocity": 27
            },
            {
              "pitch": 36,
              "beatStart": 2.65,
              "velocity": 50
            },
            {
              "pitch": 59,
              "beatStart": 2.9667,
              "velocity": 112
            },
            {
              "pitch": 21,
              "beatStart": 2.9833,
              "velocity": 64
            },
            {
              "pitch": 40,
              "beatStart": 2.9833,
              "velocity": 80
            }
          ]
        ]
      },
      {
        "id": "medium-up-swing_2",
        "measures": [
          [
            {
              "pitch": 51,
              "beatStart": 0.0,
              "velocity": 64
            },
            {
              "pitch": 51,
              "beatStart": 0.7,
              "velocity": 90
            },
            {
              "pitch": 38,
              "beatStart": 0.7083,
              "velocity": 48
            },
            {
              "pitch": 21,
              "beatStart": 0.9917,
              "velocity": 64
            },
            {
              "pitch": 38,
              "beatStart": 2.0,
              "velocity": 31
            },
            {
              "pitch": 51,
              "beatStart": 2.0167,
              "velocity": 88
            },
            {
              "pitch": 51,
              "beatStart": 3.0,
              "velocity": 62
            },
            {
              "pitch": 21,
              "beatStart": 3.0167,
              "velocity": 59
            },
            {
              "pitch": 29,
              "beatStart": 3.7,
              "velocity": 102
            },
            {
              "pitch": 38,
              "beatStart": 3.7083,
              "velocity": 36
            }
          ],
          [
            {
              "pitch": 38,
              "beatStart": 0.7167,
              "velocity": 28
            },
            {
              "pitch": 21,
              "beatStart": 1.025,
              "velocity": 69
            },
            {
              "pitch": 51,
              "beatStart": 1.0333,
              "velocity": 72
            },
            {
              "pitch": 51,
              "beatStart": 1.725,
              "velocity": 55
            },
            {
              "pitch": 38,
              "beatStart": 1.7417,
              "velocity": 23
            },
            {
              "pitch": 38,
              "beatStart": 2.0333,
              "velocity": 32
            },
            {
              "pitch": 51,
              "beatStart": 2.0417,
              "velocity": 62
            },
            {
              "pitch": 38,
              "beatStart": 2.9917,
              "velocity": 48
            },
            {
              "pitch": 51,
              "beatStart": 3.0167,
              "velocity": 82
            },
            {
              "pitch": 21,
              "beatStart": 3.0333,
              "velocity": 64
            },
            {
              "pitch": 38,
              "beatStart": 3.1083,
              "velocity": 37
            },
            {
              "pitch": 38,
              "beatStart": 3.2,
              "velocity": 28
            },
            {
              "pitch": 38,
              "beatStart": 3.2833,
              "velocity": 21
            },
            {
              "pitch": 38,
              "beatStart": 3.3667,
              "velocity": 16
            },
            {
              "pitch": 38,
              "beatStart": 3.45,
              "velocity": 11
            },
            {
              "pitch": 38,
              "beatStart": 3.525,
              "velocity": 8
            },
            {
              "pitch": 38,
              "beatStart": 3.625,
              "velocity": 4
            }
          ],
          [
            {
              "pitch": 51,
              "beatStart": 0.0083,
              "velocity": 58
            },
            {
              "pitch": 36,
              "beatStart": 0.6583,
              "velocity": 42
            },
            {
              "pitch": 51,
              "beatStart": 0.6917,
              "velocity": 78
            },
            {
              "pitch": 21,
              "beatStart": 0.9833,
              "velocity": 59
            },
            {
              "pitch": 36,
              "beatStart": 1.65,
              "velocity": 41
            },
            {
              "pitch": 51,
              "beatStart": 1.6583,
              "velocity": 88
            },
            {
              "pitch": 38,
              "beatStart": 2.6667,
              "velocity": 28
            },
            {
              "pitch": 21,
              "beatStart": 2.9667,
              "velocity": 64
            },
            {
              "pitch": 51,
              "beatStart": 2.975,
              "velocity": 64
            },
            {
              "pitch": 51,
              "beatStart": 3.6833,
              "velocity": 58
            },
            {
              "pitch": 38,
              "beatStart": 3.7083,
              "velocity": 28
            }
          ],
          [
            {
              "pitch": 38,
              "beatStart": 0.0,
              "velocity": 32
            },
            {
              "pitch": 51,
              "beatStart": 0.0,
              "velocity": 69
            },
            {
              "pitch": 36,
              "beatStart": 1.0083,
              "velocity": 49
            },
            {
              "pitch": 21,
              "beatStart": 1.0167,
              "velocity": 56
            },
            {
              "pitch": 59,
              "beatStart": 1.0167,
              "velocity": 76
            },
            {
              "pitch": 51,
              "beatStart": 1.9917,
              "velocity": 45
            },
            {
              "pitch": 29,
              "beatStart": 2.6917,
              "velocity": 82
            },
            {
              "pitch": 38,
              "beatStart": 2.7,
              "velocity": 50
            },
            {
              "pitch": 21,
              "beatStart": 2.9667,
              "velocity": 59
            },
            {
              "pitch": 38,
              "beatStart": 3.6833,
              "velocity": 32
            },
            {
              "pitch": 51,
              "beatStart": 3.9917,
              "velocity": 65
            }
          ],
          [
            {
              "pitch": 51,
              "beatStart": 0.7,
              "velocity": 40
            },
            {
              "pitch": 21,
              "beatStart": 1.0,
              "velocity": 64
            },
            {
              "pitch": 51,
              "beatStart": 1.0,
              "velocity": 60
            },
            {
              "pitch": 38,
              "beatStart": 1.0083,
              "velocity": 50
            },
            {
              "pitch": 36,
              "beatStart": 1.6583,
              "velocity": 52
            },
            {
              "pitch": 51,
              "beatStart": 2.0167,
              "velocity": 65
            },
            {
              "pitch": 51,
              "beatStart": 2.6833,
              "velocity": 44
            },
            {
              "pitch": 51,
              "beatStart": 2.9917,
              "velocity": 70
            },
            {
              "pitch": 21,
              "beatStart": 3.0,
              "velocity": 64
            },
            {
              "pitch": 38,
              "beatStart": 3.0,
              "velocity": 46
            },
            {
              "pitch": 36,
              "beatStart": 3.65,
              "velocity": 44
            }
          ],
          [
            {
              "pitch": 51,
              "beatStart": 0.0083,
              "velocity": 65
            },
            {
              "pitch": 51,
              "beatStart": 0.6667,
              "velocity": 49
            },
            {
              "pitch": 21,
              "beatStart": 0.95,
              "velocity": 64
            },
            {
              "pitch": 51,
              "beatStart": 0.9917,
              "velocity": 62
            },
            {
              "pitch": 51,
              "beatStart": 1.9583,
              "velocity": 73
            },
            {
              "pitch": 21,
              "beatStart": 2.9583,
              "velocity": 64
            },
            {
              "pitch": 38,
              "beatStart": 2.975,
              "velocity": 50
            },
            {
              "pitch": 51,
              "beatStart": 2.975,
              "velocity": 82
            },
            {
              "pitch": 36,
              "beatStart": 3.6,
              "velocity": 48
            },
            {
              "pitch": 29,
              "beatStart": 3.6167,
              "velocity": 73
            }
          ],
          [
            {
              "pitch": 38,
              "beatStart": 0.6333,
              "velocity": 30
            },
            {
              "pitch": 21,
              "beatStart": 0.925,
              "velocity": 73
            },
            {
              "pitch": 51,
              "beatStart": 0.9583,
              "velocity": 70
            },
            {
              "pitch": 51,
              "beatStart": 1.6667,
              "velocity": 53
            },
            {
              "pitch": 38,
              "beatStart": 1.6917,
              "velocity": 22
            },
            {
              "pitch": 38,
              "beatStart": 2.0,
              "velocity": 25
            },
            {
              "pitch": 51,
              "beatStart": 2.0083,
              "velocity": 68
            },
            {
              "pitch": 36,
              "beatStart": 2.6417,
              "velocity": 52
            },
            {
              "pitch": 59,
              "beatStart": 2.65,
              "velocity": 77
            },
            {
              "pitch": 21,
              "beatStart": 2.975,
              "velocity": 69
            },
            {
              "pitch": 38,
              "beatStart": 3.6833,
              "velocity": 32
            }
          ],
          [
            {
              "pitch": 51,
              "beatStart": 0.0167,
              "velocity": 60
            },
            {
              "pitch": 51,
              "beatStart": 0.7,
              "velocity": 56
            },
            {
              "pitch": 38,
              "beatStart": 0.725,
              "velocity": 25
            },
            {
              "pitch": 21,
              "beatStart": 1.0333,
              "velocity": 69
            },
            {
              "pitch": 38,
              "beatStart": 1.0333,
              "velocity": 34
            },
            {
              "pitch": 51,
              "beatStart": 1.0583,
              "velocity": 69
            },
            {
              "pitch": 36,
              "beatStart": 1.6917,
              "velocity": 49
            },
            {
              "pitch": 59,
              "beatStart": 1.7083,
              "velocity": 59
            },
            {
              "pitch": 36,
              "beatStart": 2.675,
              "velocity": 57
            },
            {
              "pitch": 59,
              "beatStart": 2.6917,
              "velocity": 69
            },
            {
              "pitch": 21,
              "beatStart": 3.0,
              "velocity": 69
            },
            {
              "pitch": 59,
              "beatStart": 3.6583,
              "velocity": 106
            },
            {
              "pitch": 36,
              "beatStart": 3.6667,
              "velocity": 84
            }
          ]
        ]
      },
      {
        "id": "medium-up-swing_3",
        "measures": [
          [
            {
              "pitch": 36,
              "beatStart": 0.0,
              "velocity": 47
            },
            {
              "pitch": 51,
              "beatStart": 0.0,
              "velocity": 80
            },
            {
              "pitch": 38,
              "beatStart": 0.7,
              "velocity": 33
            },
            {
              "pitch": 21,
              "beatStart": 0.975,
              "velocity": 69
            },
            {
              "pitch": 51,
              "beatStart": 1.0083,
              "velocity": 69
            },
            {
              "pitch": 38,
              "beatStart": 1.7,
              "velocity": 59
            },
            {
              "pitch": 29,
              "beatStart": 1.7083,
              "velocity": 84
            },
            {
              "pitch": 21,
              "beatStart": 3.0083,
              "velocity": 69
            },
            {
              "pitch": 51,
              "beatStart": 3.0167,
              "velocity": 66
            },
            {
              "pitch": 29,
              "beatStart": 3.7,
              "velocity": 93
            },
            {
              "pitch": 38,
              "beatStart": 3.7,
              "velocity": 46
            }
          ],
          [
            {
              "pitch": 38,
              "beatStart": 0.8833,
              "velocity": 30
            },
            {
              "pitch": 21,
              "beatStart": 1.05,
              "velocity": 73
            },
            {
              "pitch": 51,
              "beatStart": 1.05,
              "velocity": 67
            },
            {
              "pitch": 51,
              "beatStart": 1.7333,
              "velocity": 57
            },
            {
              "pitch": 38,
              "beatStart": 1.7417,
              "velocity": 23
            },
            {
              "pitch": 38,
              "beatStart": 2.05,
              "velocity": 31
            },
            {
              "pitch": 51,
              "beatStart": 2.05,
              "velocity": 64
            },
            {
              "pitch": 21,
              "beatStart": 3.0167,
              "velocity": 59
            },
            {
              "pitch": 36,
              "beatStart": 3.0167,
              "velocity": 57
            },
            {
              "pitch": 59,
              "beatStart": 3.0167,
              "velocity": 85
            }
          ],
          [
            {
              "pitch": 51,
              "beatStart": 0.0167,
              "velocity": 45
            },
            {
              "pitch": 21,
              "beatStart": 0.9833,
              "velocity": 69
            },
            {
              "pitch": 38,
              "beatStart": 1.0,
              "velocity": 57
            },
            {
              "pitch": 51,
              "beatStart": 1.0083,
              "velocity": 71
            },
            {
              "pitch": 51,
              "beatStart": 1.6917,
              "velocity": 54
            },
            {
              "pitch": 51,
              "beatStart": 2.0,
              "velocity": 61
            },
            {
              "pitch": 38,
              "beatStart": 2.6583,
              "velocity": 41
            },
            {
              "pitch": 21,
              "beatStart": 2.975,
              "velocity": 73
            },
            {
              "pitch": 51,
              "beatStart": 2.975,
              "velocity": 68
            },
            {
              "pitch": 51,
              "beatStart": 3.6667,
              "velocity": 56
            },
            {
              "pitch": 51,
              "beatStart": 3.9917,
              "velocity": 55
            }
          ],
          [
            {
              "pitch": 38,
              "beatStart": 0.3167,
              "velocity": 23
            },
            {
              "pitch": 38,
              "beatStart": 0.6167,
              "velocity": 33
            },
            {
              "pitch": 21,
              "beatStart": 0.925,
              "velocity": 64
            },
            {
              "pitch": 36,
              "beatStart": 0.9333,
              "velocity": 73
            },
            {
              "pitch": 59,
              "beatStart": 0.9417,
              "velocity": 102
            },
            {
              "pitch": 51,
              "beatStart": 2.0,
              "velocity": 43
            },
            {
              "pitch": 38,
              "beatStart": 3.0083,
              "velocity": 61
            },
            {
              "pitch": 21,
              "beatStart": 3.0167,
              "velocity": 73
            },
            {
              "pitch": 51,
              "beatStart": 3.0167,
              "velocity": 61
            },
            {
              "pitch": 36,
              "beatStart": 3.6583,
              "velocity": 56
            },
            {
              "pitch": 116,
              "beatStart": 3.6667,
              "velocity": 94
            }
          ],
          [
            {
              "pitch": 38,
              "beatStart": 0.6917,
              "velocity": 38
            },
            {
              "pitch": 21,
              "beatStart": 0.9833,
              "velocity": 73
            },
            {
              "pitch": 51,
              "beatStart": 1.0,
              "velocity": 65
            },
            {
              "pitch": 51,
              "beatStart": 1.6833,
              "velocity": 43
            },
            {
              "pitch": 38,
              "beatStart": 2.0,
              "velocity": 47
            },
            {
              "pitch": 51,
              "beatStart": 2.0167,
              "velocity": 56
            },
            {
              "pitch": 38,
              "beatStart": 2.3583,
              "velocity": 35
            },
            {
              "pitch": 36,
              "beatStart": 2.6833,
              "velocity": 40
            },
            {
              "pitch": 59,
              "beatStart": 2.9917,
              "velocity": 82
            },
            {
              "pitch": 21,
              "beatStart": 3.0,
              "velocity": 56
            },
            {
              "pitch": 36,
              "beatStart": 3.0083,
              "velocity": 67
            }
          ],
          [
            {
              "pitch": 51,
              "beatStart": 0.0167,
              "velocity": 51
            },
            {
              "pitch": 21,
              "beatStart": 0.9833,
              "velocity": 64
            },
            {
              "pitch": 40,
              "beatStart": 0.9917,
              "velocity": 87
            },
            {
              "pitch": 51,
              "beatStart": 1.0,
              "velocity": 72
            },
            {
              "pitch": 51,
              "beatStart": 1.6833,
              "velocity": 48
            },
            {
              "pitch": 51,
              "beatStart": 1.9833,
              "velocity": 56
            },
            {
              "pitch": 38,
              "beatStart": 2.65,
              "velocity": 23
            },
            {
              "pitch": 21,
              "beatStart": 2.9333,
              "velocity": 69
            },
            {
              "pitch": 51,
              "beatStart": 2.95,
              "velocity": 64
            },
            {
              "pitch": 51,
              "beatStart": 3.6333,
              "velocity": 47
            },
            {
              "pitch": 51,
              "beatStart": 3.9667,
              "velocity": 66
            },
            {
              "pitch": 38,
              "beatStart": 3.9917,
              "velocity": 57
            }
          ],
          [
            {
              "pitch": 38,
              "beatStart": 0.675,
              "velocity": 49
            },
            {
              "pitch": 21,
              "beatStart": 0.9583,
              "velocity": 69
            },
            {
              "pitch": 51,
              "beatStart": 0.975,
              "velocity": 69
            },
            {
              "pitch": 51,
              "beatStart": 1.675,
              "velocity": 48
            },
            {
              "pitch": 51,
              "beatStart": 2.0083,
              "velocity": 67
            },
            {
              "pitch": 48,
              "beatStart": 2.0167,
              "velocity": 84
            },
            {
              "pitch": 48,
              "beatStart": 2.6917,
              "velocity": 75
            },
            {
              "pitch": 21,
              "beatStart": 2.9917,
              "velocity": 69
            },
            {
              "pitch": 51,
              "beatStart": 3.0167,
              "velocity": 55
            },
            {
              "pitch": 36,
              "beatStart": 3.6667,
              "velocity": 58
            },
            {
              "pitch": 116,
              "beatStart": 3.675,
              "velocity": 96
            }
          ],
          [
            {
              "pitch": 38,
              "beatStart": 0.65,
              "velocity": 40
            },
            {
              "pitch": 51,
              "beatStart": 0.9417,
              "velocity": 64
            },
            {
              "pitch": 21,
              "beatStart": 0.9667,
              "velocity": 73
            },
            {
              "pitch": 43,
              "beatStart": 1.6167,
              "velocity": 77
            },
            {
              "pitch": 82,
              "beatStart": 2.0,
              "velocity": 82
            },
            {
              "pitch": 51,
              "beatStart": 2.6667,
              "velocity": 51
            },
            {
              "pitch": 38,
              "beatStart": 3.0167,
              "velocity": 60
            },
            {
              "pitch": 36,
              "beatStart": 3.6583,
              "velocity": 73
            },
            {
              "pitch": 59,
              "beatStart": 3.675,
              "velocity": 118
            }
          ]
        ]
      },
      {
        "id": "medium-up-swing_4",
        "measures": [
          [
            {
              "pitch": 51,
              "beatStart": 0.0,
              "velocity": 71
            },
            {
              "pitch": 21,
              "beatStart": 0.9833,
              "velocity": 66
            },
            {
              "pitch": 38,
              "beatStart": 1.0,
              "velocity": 47
            },
            {
              "pitch": 51,
              "beatStart": 1.0,
              "velocity": 84
            },
            {
              "pitch": 36,
              "beatStart": 1.6333,
              "velocity": 50
            },
            {
              "pitch": 116,
              "beatStart": 1.6417,
              "velocity": 100
            },
            {
              "pitch": 38,
              "beatStart": 2.6833,
              "velocity": 32
            },
            {
              "pitch": 21,
              "beatStart": 2.95,
              "velocity": 69
            },
            {
              "pitch": 51,
              "beatStart": 2.9667,
              "velocity": 63
            },
            {
              "pitch": 51,
              "beatStart": 3.675,
              "velocity": 56
            },
            {
              "pitch": 38,
              "beatStart": 3.7,
              "velocity": 30
            },
            {
              "pitch": 51,
              "beatStart": 3.9917,
              "velocity": 64
            }
          ],
          [
            {
              "pitch": 38,
              "beatStart": 0.0167,
              "velocity": 38
            },
            {
              "pitch": 59,
              "beatStart": 0.6417,
              "velocity": 83
            },
            {
              "pitch": 36,
              "beatStart": 0.65,
              "velocity": 62
            },
            {
              "pitch": 21,
              "beatStart": 0.975,
              "velocity": 61
            },
            {
              "pitch": 38,
              "beatStart": 1.775,
              "velocity": 32
            },
            {
              "pitch": 51,
              "beatStart": 2.0667,
              "velocity": 62
            },
            {
              "pitch": 38,
              "beatStart": 2.7333,
              "velocity": 30
            },
            {
              "pitch": 51,
              "beatStart": 2.7333,
              "velocity": 53
            },
            {
              "pitch": 21,
              "beatStart": 3.0083,
              "velocity": 66
            },
            {
              "pitch": 51,
              "beatStart": 3.05,
              "velocity": 60
            },
            {
              "pitch": 38,
              "beatStart": 3.0667,
              "velocity": 33
            },
            {
              "pitch": 116,
              "beatStart": 3.675,
              "velocity": 68
            },
            {
              "pitch": 36,
              "beatStart": 3.6833,
              "velocity": 52
            }
          ],
          [
            {
              "pitch": 38,
              "beatStart": 0.6917,
              "velocity": 31
            },
            {
              "pitch": 21,
              "beatStart": 0.9833,
              "velocity": 69
            },
            {
              "pitch": 51,
              "beatStart": 1.0,
              "velocity": 66
            },
            {
              "pitch": 51,
              "beatStart": 1.6833,
              "velocity": 52
            },
            {
              "pitch": 51,
              "beatStart": 2.0,
              "velocity": 63
            },
            {
              "pitch": 38,
              "beatStart": 2.0083,
              "velocity": 47
            },
            {
              "pitch": 36,
              "beatStart": 2.6333,
              "velocity": 55
            },
            {
              "pitch": 59,
              "beatStart": 2.65,
              "velocity": 81
            },
            {
              "pitch": 21,
              "beatStart": 3.0083,
              "velocity": 61
            },
            {
              "pitch": 38,
              "beatStart": 3.725,
              "velocity": 30
            }
          ],
          [
            {
              "pitch": 51,
              "beatStart": 0.0417,
              "velocity": 62
            },
            {
              "pitch": 51,
              "beatStart": 0.7,
              "velocity": 53
            },
            {
              "pitch": 38,
              "beatStart": 0.7333,
              "velocity": 32
            },
            {
              "pitch": 21,
              "beatStart": 1.0417,
              "velocity": 66
            },
            {
              "pitch": 51,
              "beatStart": 1.05,
              "velocity": 62
            },
            {
              "pitch": 38,
              "beatStart": 1.0667,
              "velocity": 42
            },
            {
              "pitch": 29,
              "beatStart": 1.6833,
              "velocity": 72
            },
            {
              "pitch": 36,
              "beatStart": 1.7,
              "velocity": 52
            },
            {
              "pitch": 36,
              "beatStart": 2.6833,
              "velocity": 52
            },
            {
              "pitch": 116,
              "beatStart": 2.6917,
              "velocity": 76
            },
            {
              "pitch": 21,
              "beatStart": 2.9833,
              "velocity": 61
            },
            {
              "pitch": 59,
              "beatStart": 3.6333,
              "velocity": 89
            },
            {
              "pitch": 36,
              "beatStart": 3.6417,
              "velocity": 72
            }
          ],
          [
            {
              "pitch": 38,
              "beatStart": 0.6667,
              "velocity": 30
            },
            {
              "pitch": 21,
              "beatStart": 0.9583,
              "velocity": 73
            },
            {
              "pitch": 51,
              "beatStart": 0.9667,
              "velocity": 67
            },
            {
              "pitch": 51,
              "beatStart": 1.6583,
              "velocity": 53
            },
            {
              "pitch": 38,
              "beatStart": 1.6917,
              "velocity": 33
            },
            {
              "pitch": 51,
              "beatStart": 1.975,
              "velocity": 67
            },
            {
              "pitch": 38,
              "beatStart": 2.0,
              "velocity": 41
            },
            {
              "pitch": 38,
              "beatStart": 2.7,
              "velocity": 19
            },
            {
              "pitch": 38,
              "beatStart": 2.8667,
              "velocity": 35
            },
            {
              "pitch": 36,
              "beatStart": 2.9667,
              "velocity": 60
            },
            {
              "pitch": 59,
              "beatStart": 2.9833,
              "velocity": 90
            },
            {
              "pitch": 21,
              "beatStart": 2.9917,
              "velocity": 57
            },
            {
              "pitch": 51,
              "beatStart": 3.9917,
              "velocity": 48
            }
          ],
          [
            {
              "pitch": 21,
              "beatStart": 0.9917,
              "velocity": 66
            },
            {
              "pitch": 40,
              "beatStart": 1.0,
              "velocity": 97
            },
            {
              "pitch": 51,
              "beatStart": 1.0083,
              "velocity": 73
            },
            {
              "pitch": 51,
              "beatStart": 1.675,
              "velocity": 53
            },
            {
              "pitch": 51,
              "beatStart": 1.9917,
              "velocity": 68
            },
            {
              "pitch": 48,
              "beatStart": 2.6667,
              "velocity": 71
            },
            {
              "pitch": 21,
              "beatStart": 2.975,
              "velocity": 66
            },
            {
              "pitch": 48,
              "beatStart": 2.9917,
              "velocity": 91
            },
            {
              "pitch": 51,
              "beatStart": 3.0167,
              "velocity": 63
            },
            {
              "pitch": 36,
              "beatStart": 3.6167,
              "velocity": 49
            },
            {
              "pitch": 116,
              "beatStart": 3.6333,
              "velocity": 100
            }
          ],
          [
            {
              "pitch": 38,
              "beatStart": 0.6833,
              "velocity": 30
            },
            {
              "pitch": 21,
              "beatStart": 0.9833,
              "velocity": 69
            },
            {
              "pitch": 51,
              "beatStart": 1.0,
              "velocity": 62
            },
            {
              "pitch": 51,
              "beatStart": 1.6833,
              "velocity": 46
            },
            {
              "pitch": 38,
              "beatStart": 2.0,
              "velocity": 30
            },
            {
              "pitch": 51,
              "beatStart": 2.025,
              "velocity": 66
            },
            {
              "pitch": 38,
              "beatStart": 2.3417,
              "velocity": 27
            },
            {
              "pitch": 36,
              "beatStart": 2.65,
              "velocity": 35
            },
            {
              "pitch": 48,
              "beatStart": 2.975,
              "velocity": 62
            },
            {
              "pitch": 21,
              "beatStart": 2.9917,
              "velocity": 61
            },
            {
              "pitch": 51,
              "beatStart": 2.9917,
              "velocity": 77
            },
            {
              "pitch": 48,
              "beatStart": 3.325,
              "velocity": 52
            },
            {
              "pitch": 36,
              "beatStart": 3.625,
              "velocity": 45
            },
            {
              "pitch": 51,
              "beatStart": 3.9667,
              "velocity": 68
            },
            {
              "pitch": 43,
              "beatStart": 3.9917,
              "velocity": 64
            }
          ],
          [
            {
              "pitch": 51,
              "beatStart": 0.625,
              "velocity": 87
            },
            {
              "pitch": 82,
              "beatStart": 0.6417,
              "velocity": 89
            },
            {
              "pitch": 21,
              "beatStart": 0.975,
              "velocity": 69
            },
            {
              "pitch": 51,
              "beatStart": 1.3,
              "velocity": 55
            },
            {
              "pitch": 67,
              "beatStart": 1.65,
              "velocity": 81
            },
            {
              "pitch": 36,
              "beatStart": 1.9917,
              "velocity": 62
            },
            {
              "pitch": 116,
              "beatStart": 2.3,
              "velocity": 88
            },
            {
              "pitch": 38,
              "beatStart": 2.6583,
              "velocity": 26
            },
            {
              "pitch": 82,
              "beatStart": 2.9917,
              "velocity": 75
            },
            {
              "pitch": 38,
              "beatStart": 3.3083,
              "velocity": 36
            },
            {
              "pitch": 36,
              "beatStart": 3.6583,
              "velocity": 52
            }
          ]
        ]
      }
    ],
    "medium-up-swing-2": [
      {
        "id": "medium-up-swing-2_1",
        "measures": [
          [
            {
              "pitch": 51,
              "beatStart": 0.0,
              "velocity": 61
            },
            {
              "pitch": 38,
              "beatStart": 0.7167,
              "velocity": 22
            },
            {
              "pitch": 21,
              "beatStart": 0.9667,
              "velocity": 64
            },
            {
              "pitch": 51,
              "beatStart": 1.0167,
              "velocity": 75
            },
            {
              "pitch": 38,
              "beatStart": 2.0,
              "velocity": 35
            },
            {
              "pitch": 51,
              "beatStart": 2.0083,
              "velocity": 89
            },
            {
              "pitch": 21,
              "beatStart": 2.9667,
              "velocity": 59
            },
            {
              "pitch": 51,
              "beatStart": 3.0083,
              "velocity": 64
            },
            {
              "pitch": 38,
              "beatStart": 3.675,
              "velocity": 32
            },
            {
              "pitch": 51,
              "beatStart": 3.675,
              "velocity": 83
            }
          ],
          [
            {
              "pitch": 38,
              "beatStart": 0.6583,
              "velocity": 25
            },
            {
              "pitch": 21,
              "beatStart": 0.9417,
              "velocity": 64
            },
            {
              "pitch": 51,
              "beatStart": 0.9833,
              "velocity": 74
            },
            {
              "pitch": 38,
              "beatStart": 1.6667,
              "velocity": 32
            },
            {
              "pitch": 51,
              "beatStart": 1.675,
              "velocity": 59
            },
            {
              "pitch": 51,
              "beatStart": 2.0,
              "velocity": 56
            },
            {
              "pitch": 21,
              "beatStart": 2.9417,
              "velocity": 59
            },
            {
              "pitch": 51,
              "beatStart": 2.975,
              "velocity": 74
            },
            {
              "pitch": 38,
              "beatStart": 2.9833,
              "velocity": 32
            },
            {
              "pitch": 38,
              "beatStart": 3.9833,
              "velocity": 32
            },
            {
              "pitch": 51,
              "beatStart": 3.9917,
              "velocity": 73
            }
          ],
          [
            {
              "pitch": 51,
              "beatStart": 0.6833,
              "velocity": 61
            },
            {
              "pitch": 21,
              "beatStart": 0.9833,
              "velocity": 64
            },
            {
              "pitch": 51,
              "beatStart": 1.0333,
              "velocity": 57
            },
            {
              "pitch": 38,
              "beatStart": 1.725,
              "velocity": 25
            },
            {
              "pitch": 51,
              "beatStart": 2.0333,
              "velocity": 69
            },
            {
              "pitch": 38,
              "beatStart": 2.675,
              "velocity": 45
            },
            {
              "pitch": 51,
              "beatStart": 2.675,
              "velocity": 77
            },
            {
              "pitch": 21,
              "beatStart": 2.9667,
              "velocity": 59
            },
            {
              "pitch": 38,
              "beatStart": 3.6667,
              "velocity": 30
            },
            {
              "pitch": 51,
              "beatStart": 3.9833,
              "velocity": 79
            }
          ],
          [
            {
              "pitch": 21,
              "beatStart": 0.9667,
              "velocity": 59
            },
            {
              "pitch": 51,
              "beatStart": 1.0167,
              "velocity": 71
            },
            {
              "pitch": 51,
              "beatStart": 1.6833,
              "velocity": 60
            },
            {
              "pitch": 51,
              "beatStart": 2.0,
              "velocity": 63
            },
            {
              "pitch": 38,
              "beatStart": 2.7083,
              "velocity": 24
            },
            {
              "pitch": 21,
              "beatStart": 2.975,
              "velocity": 59
            },
            {
              "pitch": 51,
              "beatStart": 3.0083,
              "velocity": 71
            },
            {
              "pitch": 38,
              "beatStart": 3.9917,
              "velocity": 35
            }
          ],
          [
            {
              "pitch": 51,
              "beatStart": 0.0083,
              "velocity": 80
            },
            {
              "pitch": 21,
              "beatStart": 0.9583,
              "velocity": 59
            },
            {
              "pitch": 51,
              "beatStart": 0.9583,
              "velocity": 67
            },
            {
              "pitch": 38,
              "beatStart": 1.65,
              "velocity": 44
            },
            {
              "pitch": 51,
              "beatStart": 1.65,
              "velocity": 82
            },
            {
              "pitch": 38,
              "beatStart": 2.6917,
              "velocity": 32
            },
            {
              "pitch": 21,
              "beatStart": 2.9833,
              "velocity": 68
            },
            {
              "pitch": 51,
              "beatStart": 3.0167,
              "velocity": 82
            },
            {
              "pitch": 38,
              "beatStart": 3.7,
              "velocity": 34
            },
            {
              "pitch": 51,
              "beatStart": 3.7083,
              "velocity": 57
            }
          ],
          [
            {
              "pitch": 38,
              "beatStart": 0.0167,
              "velocity": 29
            },
            {
              "pitch": 51,
              "beatStart": 0.0333,
              "velocity": 59
            },
            {
              "pitch": 21,
              "beatStart": 0.975,
              "velocity": 56
            },
            {
              "pitch": 36,
              "beatStart": 1.0,
              "velocity": 50
            },
            {
              "pitch": 51,
              "beatStart": 1.0083,
              "velocity": 74
            },
            {
              "pitch": 36,
              "beatStart": 1.9667,
              "velocity": 59
            },
            {
              "pitch": 51,
              "beatStart": 1.975,
              "velocity": 66
            },
            {
              "pitch": 21,
              "beatStart": 2.9583,
              "velocity": 64
            },
            {
              "pitch": 38,
              "beatStart": 2.9583,
              "velocity": 40
            },
            {
              "pitch": 51,
              "beatStart": 2.9833,
              "velocity": 68
            },
            {
              "pitch": 36,
              "beatStart": 3.6,
              "velocity": 49
            },
            {
              "pitch": 51,
              "beatStart": 3.625,
              "velocity": 87
            }
          ],
          [
            {
              "pitch": 38,
              "beatStart": 0.6333,
              "velocity": 37
            },
            {
              "pitch": 51,
              "beatStart": 0.9583,
              "velocity": 67
            },
            {
              "pitch": 21,
              "beatStart": 0.9667,
              "velocity": 59
            },
            {
              "pitch": 36,
              "beatStart": 0.9667,
              "velocity": 58
            },
            {
              "pitch": 51,
              "beatStart": 1.6417,
              "velocity": 48
            },
            {
              "pitch": 51,
              "beatStart": 1.9667,
              "velocity": 61
            },
            {
              "pitch": 21,
              "beatStart": 2.975,
              "velocity": 64
            },
            {
              "pitch": 38,
              "beatStart": 2.9917,
              "velocity": 52
            },
            {
              "pitch": 51,
              "beatStart": 3.0,
              "velocity": 69
            },
            {
              "pitch": 36,
              "beatStart": 3.6167,
              "velocity": 72
            },
            {
              "pitch": 51,
              "beatStart": 3.6333,
              "velocity": 83
            }
          ],
          [
            {
              "pitch": 38,
              "beatStart": 0.6667,
              "velocity": 35
            },
            {
              "pitch": 21,
              "beatStart": 0.9333,
              "velocity": 68
            },
            {
              "pitch": 51,
              "beatStart": 0.975,
              "velocity": 62
            },
            {
              "pitch": 38,
              "beatStart": 1.6333,
              "velocity": 30
            },
            {
              "pitch": 51,
              "beatStart": 1.6333,
              "velocity": 50
            },
            {
              "pitch": 38,
              "beatStart": 1.9417,
              "velocity": 36
            },
            {
              "pitch": 51,
              "beatStart": 1.9583,
              "velocity": 58
            },
            {
              "pitch": 36,
              "beatStart": 2.6333,
              "velocity": 32
            },
            {
              "pitch": 36,
              "beatStart": 2.95,
              "velocity": 82
            },
            {
              "pitch": 21,
              "beatStart": 2.9583,
              "velocity": 59
            },
            {
              "pitch": 116,
              "beatStart": 2.9667,
              "velocity": 92
            }
          ]
        ]
      },
      {
        "id": "medium-up-swing-2_2",
        "measures": [
          [
            {
              "pitch": 51,
              "beatStart": 0.0083,
              "velocity": 57
            },
            {
              "pitch": 21,
              "beatStart": 0.975,
              "velocity": 68
            },
            {
              "pitch": 38,
              "beatStart": 0.975,
              "velocity": 52
            },
            {
              "pitch": 51,
              "beatStart": 0.9833,
              "velocity": 73
            },
            {
              "pitch": 51,
              "beatStart": 1.7,
              "velocity": 62
            },
            {
              "pitch": 51,
              "beatStart": 2.0167,
              "velocity": 55
            },
            {
              "pitch": 38,
              "beatStart": 2.6833,
              "velocity": 33
            },
            {
              "pitch": 21,
              "beatStart": 2.975,
              "velocity": 73
            },
            {
              "pitch": 51,
              "beatStart": 3.0,
              "velocity": 68
            },
            {
              "pitch": 51,
              "beatStart": 3.7,
              "velocity": 57
            }
          ],
          [
            {
              "pitch": 38,
              "beatStart": 0.0,
              "velocity": 44
            },
            {
              "pitch": 51,
              "beatStart": 0.0417,
              "velocity": 59
            },
            {
              "pitch": 38,
              "beatStart": 0.675,
              "velocity": 37
            },
            {
              "pitch": 21,
              "beatStart": 0.9917,
              "velocity": 59
            },
            {
              "pitch": 36,
              "beatStart": 1.0,
              "velocity": 51
            },
            {
              "pitch": 51,
              "beatStart": 1.0167,
              "velocity": 74
            },
            {
              "pitch": 36,
              "beatStart": 1.6667,
              "velocity": 57
            },
            {
              "pitch": 51,
              "beatStart": 1.675,
              "velocity": 50
            },
            {
              "pitch": 38,
              "beatStart": 1.9667,
              "velocity": 44
            },
            {
              "pitch": 51,
              "beatStart": 2.0,
              "velocity": 62
            },
            {
              "pitch": 21,
              "beatStart": 2.95,
              "velocity": 59
            },
            {
              "pitch": 51,
              "beatStart": 2.975,
              "velocity": 63
            },
            {
              "pitch": 38,
              "beatStart": 3.6417,
              "velocity": 56
            },
            {
              "pitch": 51,
              "beatStart": 3.65,
              "velocity": 77
            }
          ],
          [
            {
              "pitch": 38,
              "beatStart": 0.6667,
              "velocity": 33
            },
            {
              "pitch": 21,
              "beatStart": 0.975,
              "velocity": 64
            },
            {
              "pitch": 36,
              "beatStart": 0.975,
              "velocity": 58
            },
            {
              "pitch": 51,
              "beatStart": 0.9917,
              "velocity": 70
            },
            {
              "pitch": 51,
              "beatStart": 1.6833,
              "velocity": 54
            },
            {
              "pitch": 38,
              "beatStart": 2.0167,
              "velocity": 37
            },
            {
              "pitch": 51,
              "beatStart": 2.0167,
              "velocity": 60
            },
            {
              "pitch": 38,
              "beatStart": 2.6667,
              "velocity": 33
            },
            {
              "pitch": 21,
              "beatStart": 2.9667,
              "velocity": 64
            },
            {
              "pitch": 36,
              "beatStart": 3.0,
              "velocity": 54
            },
            {
              "pitch": 51,
              "beatStart": 3.0167,
              "velocity": 63
            },
            {
              "pitch": 36,
              "beatStart": 3.6333,
              "velocity": 54
            },
            {
              "pitch": 51,
              "beatStart": 3.6417,
              "velocity": 48
            },
            {
              "pitch": 38,
              "beatStart": 3.975,
              "velocity": 34
            }
          ],
          [
            {
              "pitch": 51,
              "beatStart": 0.0,
              "velocity": 64
            },
            {
              "pitch": 36,
              "beatStart": 0.575,
              "velocity": 52
            },
            {
              "pitch": 51,
              "beatStart": 0.6,
              "velocity": 95
            },
            {
              "pitch": 21,
              "beatStart": 0.975,
              "velocity": 59
            },
            {
              "pitch": 38,
              "beatStart": 1.6333,
              "velocity": 33
            },
            {
              "pitch": 51,
              "beatStart": 2.0,
              "velocity": 69
            },
            {
              "pitch": 51,
              "beatStart": 2.6583,
              "velocity": 51
            },
            {
              "pitch": 38,
              "beatStart": 2.6667,
              "velocity": 27
            },
            {
              "pitch": 21,
              "beatStart": 2.9583,
              "velocity": 68
            },
            {
              "pitch": 38,
              "beatStart": 2.9833,
              "velocity": 32
            },
            {
              "pitch": 51,
              "beatStart": 2.9917,
              "velocity": 62
            },
            {
              "pitch": 36,
              "beatStart": 3.6167,
              "velocity": 67
            },
            {
              "pitch": 51,
              "beatStart": 3.6333,
              "velocity": 84
            }
          ],
          [
            {
              "pitch": 38,
              "beatStart": 0.675,
              "velocity": 38
            },
            {
              "pitch": 21,
              "beatStart": 0.9917,
              "velocity": 73
            },
            {
              "pitch": 51,
              "beatStart": 1.0167,
              "velocity": 66
            },
            {
              "pitch": 51,
              "beatStart": 1.6833,
              "velocity": 57
            },
            {
              "pitch": 38,
              "beatStart": 1.7083,
              "velocity": 29
            },
            {
              "pitch": 38,
              "beatStart": 2.0,
              "velocity": 33
            },
            {
              "pitch": 51,
              "beatStart": 2.0,
              "velocity": 56
            },
            {
              "pitch": 36,
              "beatStart": 2.6417,
              "velocity": 42
            },
            {
              "pitch": 36,
              "beatStart": 2.9833,
              "velocity": 78
            },
            {
              "pitch": 60,
              "beatStart": 2.9833,
              "velocity": 72
            },
            {
              "pitch": 59,
              "beatStart": 3.0,
              "velocity": 85
            },
            {
              "pitch": 51,
              "beatStart": 3.9833,
              "velocity": 47
            }
          ],
          [
            {
              "pitch": 40,
              "beatStart": 0.9917,
              "velocity": 83
            },
            {
              "pitch": 21,
              "beatStart": 1.0,
              "velocity": 68
            },
            {
              "pitch": 51,
              "beatStart": 1.0083,
              "velocity": 112
            },
            {
              "pitch": 51,
              "beatStart": 1.7333,
              "velocity": 55
            },
            {
              "pitch": 51,
              "beatStart": 2.0667,
              "velocity": 51
            },
            {
              "pitch": 38,
              "beatStart": 2.6917,
              "velocity": 36
            },
            {
              "pitch": 21,
              "beatStart": 2.975,
              "velocity": 68
            },
            {
              "pitch": 51,
              "beatStart": 3.0167,
              "velocity": 56
            },
            {
              "pitch": 36,
              "beatStart": 3.65,
              "velocity": 55
            },
            {
              "pitch": 51,
              "beatStart": 3.6833,
              "velocity": 71
            }
          ],
          [
            {
              "pitch": 36,
              "beatStart": 0.625,
              "velocity": 63
            },
            {
              "pitch": 59,
              "beatStart": 0.65,
              "velocity": 69
            },
            {
              "pitch": 21,
              "beatStart": 0.9333,
              "velocity": 64
            },
            {
              "pitch": 38,
              "beatStart": 1.6917,
              "velocity": 42
            },
            {
              "pitch": 51,
              "beatStart": 2.025,
              "velocity": 81
            },
            {
              "pitch": 51,
              "beatStart": 2.6833,
              "velocity": 62
            },
            {
              "pitch": 38,
              "beatStart": 2.7083,
              "velocity": 27
            },
            {
              "pitch": 21,
              "beatStart": 2.9917,
              "velocity": 68
            },
            {
              "pitch": 38,
              "beatStart": 3.0417,
              "velocity": 35
            },
            {
              "pitch": 51,
              "beatStart": 3.0417,
              "velocity": 56
            },
            {
              "pitch": 36,
              "beatStart": 3.6583,
              "velocity": 61
            },
            {
              "pitch": 116,
              "beatStart": 3.6917,
              "velocity": 96
            }
          ],
          [
            {
              "pitch": 38,
              "beatStart": 0.6833,
              "velocity": 37
            },
            {
              "pitch": 21,
              "beatStart": 1.0,
              "velocity": 68
            },
            {
              "pitch": 51,
              "beatStart": 1.0167,
              "velocity": 75
            },
            {
              "pitch": 51,
              "beatStart": 1.6917,
              "velocity": 57
            },
            {
              "pitch": 51,
              "beatStart": 2.0333,
              "velocity": 66
            },
            {
              "pitch": 36,
              "beatStart": 2.65,
              "velocity": 56
            },
            {
              "pitch": 21,
              "beatStart": 2.9667,
              "velocity": 68
            },
            {
              "pitch": 51,
              "beatStart": 2.9917,
              "velocity": 72
            },
            {
              "pitch": 36,
              "beatStart": 3.6833,
              "velocity": 52
            },
            {
              "pitch": 51,
              "beatStart": 3.6917,
              "velocity": 55
            }
          ]
        ]
      },
      {
        "id": "medium-up-swing-2_3",
        "measures": [
          [
            {
              "pitch": 51,
              "beatStart": 0.0,
              "velocity": 55
            },
            {
              "pitch": 36,
              "beatStart": 0.6833,
              "velocity": 58
            },
            {
              "pitch": 21,
              "beatStart": 0.9833,
              "velocity": 67
            },
            {
              "pitch": 51,
              "beatStart": 1.0333,
              "velocity": 74
            },
            {
              "pitch": 38,
              "beatStart": 1.6667,
              "velocity": 51
            },
            {
              "pitch": 51,
              "beatStart": 1.7,
              "velocity": 59
            },
            {
              "pitch": 51,
              "beatStart": 2.0167,
              "velocity": 63
            },
            {
              "pitch": 21,
              "beatStart": 2.9917,
              "velocity": 67
            },
            {
              "pitch": 38,
              "beatStart": 2.9917,
              "velocity": 75
            },
            {
              "pitch": 116,
              "beatStart": 3.0,
              "velocity": 84
            },
            {
              "pitch": 51,
              "beatStart": 3.6917,
              "velocity": 51
            }
          ],
          [
            {
              "pitch": 51,
              "beatStart": 0.0333,
              "velocity": 60
            },
            {
              "pitch": 38,
              "beatStart": 0.725,
              "velocity": 40
            },
            {
              "pitch": 21,
              "beatStart": 0.975,
              "velocity": 72
            },
            {
              "pitch": 51,
              "beatStart": 1.025,
              "velocity": 74
            },
            {
              "pitch": 51,
              "beatStart": 1.6583,
              "velocity": 61
            },
            {
              "pitch": 51,
              "beatStart": 1.9833,
              "velocity": 53
            },
            {
              "pitch": 38,
              "beatStart": 2.3083,
              "velocity": 30
            },
            {
              "pitch": 38,
              "beatStart": 2.625,
              "velocity": 31
            },
            {
              "pitch": 36,
              "beatStart": 2.7167,
              "velocity": 33
            },
            {
              "pitch": 21,
              "beatStart": 2.9833,
              "velocity": 63
            },
            {
              "pitch": 36,
              "beatStart": 3.0083,
              "velocity": 75
            },
            {
              "pitch": 59,
              "beatStart": 3.0167,
              "velocity": 89
            }
          ],
          [
            {
              "pitch": 51,
              "beatStart": 0.0,
              "velocity": 43
            },
            {
              "pitch": 40,
              "beatStart": 0.95,
              "velocity": 92
            },
            {
              "pitch": 21,
              "beatStart": 0.9583,
              "velocity": 72
            },
            {
              "pitch": 51,
              "beatStart": 0.9667,
              "velocity": 75
            },
            {
              "pitch": 38,
              "beatStart": 1.325,
              "velocity": 16
            },
            {
              "pitch": 51,
              "beatStart": 1.6167,
              "velocity": 51
            },
            {
              "pitch": 51,
              "beatStart": 1.9583,
              "velocity": 73
            },
            {
              "pitch": 38,
              "beatStart": 2.675,
              "velocity": 39
            },
            {
              "pitch": 21,
              "beatStart": 2.95,
              "velocity": 72
            },
            {
              "pitch": 51,
              "beatStart": 2.9917,
              "velocity": 63
            },
            {
              "pitch": 36,
              "beatStart": 3.6417,
              "velocity": 66
            },
            {
              "pitch": 59,
              "beatStart": 3.65,
              "velocity": 106
            }
          ],
          [
            {
              "pitch": 38,
              "beatStart": 0.7417,
              "velocity": 43
            },
            {
              "pitch": 21,
              "beatStart": 0.9833,
              "velocity": 72
            },
            {
              "pitch": 51,
              "beatStart": 1.0167,
              "velocity": 68
            },
            {
              "pitch": 51,
              "beatStart": 1.7,
              "velocity": 54
            },
            {
              "pitch": 51,
              "beatStart": 2.025,
              "velocity": 59
            },
            {
              "pitch": 38,
              "beatStart": 2.7,
              "velocity": 43
            },
            {
              "pitch": 21,
              "beatStart": 2.975,
              "velocity": 63
            },
            {
              "pitch": 36,
              "beatStart": 2.9917,
              "velocity": 85
            },
            {
              "pitch": 59,
              "beatStart": 3.0,
              "velocity": 89
            },
            {
              "pitch": 51,
              "beatStart": 3.9833,
              "velocity": 65
            }
          ],
          [
            {
              "pitch": 21,
              "beatStart": 0.9833,
              "velocity": 66
            },
            {
              "pitch": 38,
              "beatStart": 1.0167,
              "velocity": 39
            },
            {
              "pitch": 51,
              "beatStart": 1.0167,
              "velocity": 70
            },
            {
              "pitch": 38,
              "beatStart": 1.3667,
              "velocity": 33
            },
            {
              "pitch": 36,
              "beatStart": 1.6583,
              "velocity": 36
            },
            {
              "pitch": 36,
              "beatStart": 2.0,
              "velocity": 70
            },
            {
              "pitch": 59,
              "beatStart": 2.0333,
              "velocity": 83
            },
            {
              "pitch": 38,
              "beatStart": 2.7167,
              "velocity": 40
            },
            {
              "pitch": 21,
              "beatStart": 2.975,
              "velocity": 72
            },
            {
              "pitch": 51,
              "beatStart": 3.0417,
              "velocity": 49
            },
            {
              "pitch": 59,
              "beatStart": 3.6833,
              "velocity": 66
            },
            {
              "pitch": 36,
              "beatStart": 3.6917,
              "velocity": 75
            }
          ],
          [
            {
              "pitch": 38,
              "beatStart": 0.6833,
              "velocity": 38
            },
            {
              "pitch": 21,
              "beatStart": 0.9833,
              "velocity": 72
            },
            {
              "pitch": 51,
              "beatStart": 1.0083,
              "velocity": 67
            },
            {
              "pitch": 51,
              "beatStart": 1.6833,
              "velocity": 50
            },
            {
              "pitch": 51,
              "beatStart": 2.0333,
              "velocity": 63
            },
            {
              "pitch": 38,
              "beatStart": 2.0417,
              "velocity": 37
            },
            {
              "pitch": 38,
              "beatStart": 2.375,
              "velocity": 34
            },
            {
              "pitch": 36,
              "beatStart": 2.6833,
              "velocity": 36
            },
            {
              "pitch": 21,
              "beatStart": 2.9917,
              "velocity": 58
            },
            {
              "pitch": 36,
              "beatStart": 2.9917,
              "velocity": 87
            },
            {
              "pitch": 59,
              "beatStart": 3.0,
              "velocity": 96
            }
          ],
          [
            {
              "pitch": 51,
              "beatStart": 0.0,
              "velocity": 55
            },
            {
              "pitch": 21,
              "beatStart": 0.9833,
              "velocity": 67
            },
            {
              "pitch": 38,
              "beatStart": 0.9917,
              "velocity": 83
            },
            {
              "pitch": 51,
              "beatStart": 1.0,
              "velocity": 74
            },
            {
              "pitch": 51,
              "beatStart": 1.6833,
              "velocity": 55
            },
            {
              "pitch": 51,
              "beatStart": 2.0,
              "velocity": 61
            },
            {
              "pitch": 48,
              "beatStart": 2.6417,
              "velocity": 90
            },
            {
              "pitch": 21,
              "beatStart": 2.95,
              "velocity": 72
            },
            {
              "pitch": 51,
              "beatStart": 3.0083,
              "velocity": 63
            },
            {
              "pitch": 36,
              "beatStart": 3.625,
              "velocity": 66
            },
            {
              "pitch": 51,
              "beatStart": 3.6333,
              "velocity": 100
            }
          ],
          [
            {
              "pitch": 38,
              "beatStart": 0.6667,
              "velocity": 41
            },
            {
              "pitch": 21,
              "beatStart": 0.9583,
              "velocity": 72
            },
            {
              "pitch": 51,
              "beatStart": 0.9833,
              "velocity": 66
            },
            {
              "pitch": 51,
              "beatStart": 1.6583,
              "velocity": 52
            },
            {
              "pitch": 51,
              "beatStart": 2.0083,
              "velocity": 60
            },
            {
              "pitch": 48,
              "beatStart": 2.6167,
              "velocity": 91
            },
            {
              "pitch": 21,
              "beatStart": 2.9667,
              "velocity": 67
            },
            {
              "pitch": 43,
              "beatStart": 3.0167,
              "velocity": 78
            },
            {
              "pitch": 36,
              "beatStart": 3.6333,
              "velocity": 98
            },
            {
              "pitch": 51,
              "beatStart": 3.6667,
              "velocity": 102
            }
          ]
        ]
      },
      {
        "id": "medium-up-swing-2_4",
        "measures": [
          [
            {
              "pitch": 38,
              "beatStart": 0.6583,
              "velocity": 41
            },
            {
              "pitch": 21,
              "beatStart": 0.975,
              "velocity": 72
            },
            {
              "pitch": 51,
              "beatStart": 1.0,
              "velocity": 50
            },
            {
              "pitch": 38,
              "beatStart": 1.625,
              "velocity": 39
            },
            {
              "pitch": 51,
              "beatStart": 1.6417,
              "velocity": 66
            },
            {
              "pitch": 36,
              "beatStart": 2.5583,
              "velocity": 68
            },
            {
              "pitch": 51,
              "beatStart": 2.5917,
              "velocity": 108
            },
            {
              "pitch": 21,
              "beatStart": 2.8917,
              "velocity": 72
            },
            {
              "pitch": 38,
              "beatStart": 3.675,
              "velocity": 39
            }
          ],
          [
            {
              "pitch": 51,
              "beatStart": 0.0,
              "velocity": 62
            },
            {
              "pitch": 38,
              "beatStart": 0.7083,
              "velocity": 35
            },
            {
              "pitch": 51,
              "beatStart": 0.725,
              "velocity": 56
            },
            {
              "pitch": 21,
              "beatStart": 1.0167,
              "velocity": 67
            },
            {
              "pitch": 38,
              "beatStart": 1.0667,
              "velocity": 41
            },
            {
              "pitch": 51,
              "beatStart": 1.0833,
              "velocity": 62
            },
            {
              "pitch": 36,
              "beatStart": 1.6833,
              "velocity": 65
            },
            {
              "pitch": 59,
              "beatStart": 1.7,
              "velocity": 79
            },
            {
              "pitch": 38,
              "beatStart": 2.7,
              "velocity": 44
            },
            {
              "pitch": 21,
              "beatStart": 2.9917,
              "velocity": 72
            },
            {
              "pitch": 51,
              "beatStart": 3.0167,
              "velocity": 69
            },
            {
              "pitch": 51,
              "beatStart": 3.6833,
              "velocity": 56
            }
          ],
          [
            {
              "pitch": 51,
              "beatStart": 0.0167,
              "velocity": 60
            },
            {
              "pitch": 82,
              "beatStart": 0.6667,
              "velocity": 87
            },
            {
              "pitch": 21,
              "beatStart": 0.9833,
              "velocity": 72
            },
            {
              "pitch": 43,
              "beatStart": 1.0083,
              "velocity": 73
            },
            {
              "pitch": 36,
              "beatStart": 1.6417,
              "velocity": 68
            },
            {
              "pitch": 51,
              "beatStart": 1.6417,
              "velocity": 86
            },
            {
              "pitch": 38,
              "beatStart": 2.0333,
              "velocity": 19
            },
            {
              "pitch": 36,
              "beatStart": 2.6083,
              "velocity": 58
            },
            {
              "pitch": 21,
              "beatStart": 2.95,
              "velocity": 67
            },
            {
              "pitch": 116,
              "beatStart": 2.9917,
              "velocity": 79
            },
            {
              "pitch": 38,
              "beatStart": 3.6417,
              "velocity": 87
            }
          ],
          [
            {
              "pitch": 43,
              "beatStart": 0.0167,
              "velocity": 65
            },
            {
              "pitch": 36,
              "beatStart": 0.6,
              "velocity": 71
            },
            {
              "pitch": 59,
              "beatStart": 0.6333,
              "velocity": 64
            },
            {
              "pitch": 21,
              "beatStart": 0.9417,
              "velocity": 72
            },
            {
              "pitch": 38,
              "beatStart": 1.0833,
              "velocity": 16
            },
            {
              "pitch": 36,
              "beatStart": 1.65,
              "velocity": 60
            },
            {
              "pitch": 59,
              "beatStart": 2.0,
              "velocity": 76
            },
            {
              "pitch": 38,
              "beatStart": 2.6417,
              "velocity": 41
            },
            {
              "pitch": 21,
              "beatStart": 2.975,
              "velocity": 67
            },
            {
              "pitch": 43,
              "beatStart": 3.0,
              "velocity": 84
            },
            {
              "pitch": 36,
              "beatStart": 3.6083,
              "velocity": 89
            },
            {
              "pitch": 59,
              "beatStart": 3.6333,
              "velocity": 67
            },
            {
              "pitch": 51,
              "beatStart": 3.75,
              "velocity": 51
            }
          ],
          [
            {
              "pitch": 38,
              "beatStart": 0.6083,
              "velocity": 47
            },
            {
              "pitch": 21,
              "beatStart": 0.9583,
              "velocity": 72
            },
            {
              "pitch": 51,
              "beatStart": 0.9833,
              "velocity": 64
            },
            {
              "pitch": 38,
              "beatStart": 1.6667,
              "velocity": 43
            },
            {
              "pitch": 51,
              "beatStart": 1.6667,
              "velocity": 56
            },
            {
              "pitch": 51,
              "beatStart": 1.9833,
              "velocity": 53
            },
            {
              "pitch": 38,
              "beatStart": 1.9917,
              "velocity": 41
            },
            {
              "pitch": 36,
              "beatStart": 2.6583,
              "velocity": 27
            },
            {
              "pitch": 36,
              "beatStart": 2.9833,
              "velocity": 91
            },
            {
              "pitch": 59,
              "beatStart": 2.9917,
              "velocity": 91
            },
            {
              "pitch": 60,
              "beatStart": 2.9917,
              "velocity": 85
            }
          ],
          [
            {
              "pitch": 51,
              "beatStart": 0.0167,
              "velocity": 52
            },
            {
              "pitch": 21,
              "beatStart": 0.9833,
              "velocity": 67
            },
            {
              "pitch": 40,
              "beatStart": 1.0,
              "velocity": 94
            },
            {
              "pitch": 59,
              "beatStart": 1.0083,
              "velocity": 114
            },
            {
              "pitch": 51,
              "beatStart": 1.675,
              "velocity": 50
            },
            {
              "pitch": 51,
              "beatStart": 2.0167,
              "velocity": 55
            },
            {
              "pitch": 48,
              "beatStart": 2.6917,
              "velocity": 82
            },
            {
              "pitch": 21,
              "beatStart": 2.9333,
              "velocity": 67
            },
            {
              "pitch": 51,
              "beatStart": 3.0333,
              "velocity": 54
            },
            {
              "pitch": 36,
              "beatStart": 3.6667,
              "velocity": 61
            },
            {
              "pitch": 51,
              "beatStart": 3.675,
              "velocity": 108
            }
          ],
          [
            {
              "pitch": 38,
              "beatStart": 0.7,
              "velocity": 39
            },
            {
              "pitch": 51,
              "beatStart": 1.0,
              "velocity": 73
            },
            {
              "pitch": 21,
              "beatStart": 1.0083,
              "velocity": 67
            },
            {
              "pitch": 51,
              "beatStart": 1.7,
              "velocity": 53
            },
            {
              "pitch": 38,
              "beatStart": 2.025,
              "velocity": 41
            },
            {
              "pitch": 51,
              "beatStart": 2.025,
              "velocity": 52
            },
            {
              "pitch": 38,
              "beatStart": 2.6833,
              "velocity": 37
            },
            {
              "pitch": 21,
              "beatStart": 2.975,
              "velocity": 63
            },
            {
              "pitch": 36,
              "beatStart": 3.0083,
              "velocity": 46
            },
            {
              "pitch": 51,
              "beatStart": 3.0417,
              "velocity": 62
            },
            {
              "pitch": 36,
              "beatStart": 3.65,
              "velocity": 59
            },
            {
              "pitch": 51,
              "beatStart": 3.675,
              "velocity": 54
            },
            {
              "pitch": 38,
              "beatStart": 3.9667,
              "velocity": 49
            }
          ],
          [
            {
              "pitch": 51,
              "beatStart": 0.0,
              "velocity": 61
            },
            {
              "pitch": 21,
              "beatStart": 0.9583,
              "velocity": 58
            },
            {
              "pitch": 51,
              "beatStart": 0.9833,
              "velocity": 70
            },
            {
              "pitch": 38,
              "beatStart": 2.0,
              "velocity": 64
            },
            {
              "pitch": 51,
              "beatStart": 2.0167,
              "velocity": 95
            },
            {
              "pitch": 21,
              "beatStart": 2.9667,
              "velocity": 63
            },
            {
              "pitch": 36,
              "beatStart": 3.0167,
              "velocity": 39
            },
            {
              "pitch": 51,
              "beatStart": 3.0167,
              "velocity": 66
            },
            {
              "pitch": 36,
              "beatStart": 3.6667,
              "velocity": 60
            },
            {
              "pitch": 51,
              "beatStart": 3.6917,
              "velocity": 76
            }
          ]
        ]
      }
    ],
    "up-tempo-swing": [
      {
        "id": "up-tempo-swing_1",
        "measures": [
          [
            {
              "pitch": 51,
              "beatStart": 0.0,
              "velocity": 59
            },
            {
              "pitch": 21,
              "beatStart": 0.9083,
              "velocity": 57
            },
            {
              "pitch": 38,
              "beatStart": 0.9417,
              "velocity": 39
            },
            {
              "pitch": 51,
              "beatStart": 0.95,
              "velocity": 68
            },
            {
              "pitch": 51,
              "beatStart": 1.55,
              "velocity": 61
            },
            {
              "pitch": 36,
              "beatStart": 1.5583,
              "velocity": 67
            },
            {
              "pitch": 51,
              "beatStart": 1.9333,
              "velocity": 55
            },
            {
              "pitch": 21,
              "beatStart": 2.9667,
              "velocity": 61
            },
            {
              "pitch": 51,
              "beatStart": 2.9667,
              "velocity": 59
            },
            {
              "pitch": 51,
              "beatStart": 3.55,
              "velocity": 77
            },
            {
              "pitch": 38,
              "beatStart": 3.5583,
              "velocity": 44
            }
          ],
          [
            {
              "pitch": 38,
              "beatStart": 0.5417,
              "velocity": 38
            },
            {
              "pitch": 21,
              "beatStart": 0.875,
              "velocity": 61
            },
            {
              "pitch": 51,
              "beatStart": 0.9083,
              "velocity": 68
            },
            {
              "pitch": 36,
              "beatStart": 1.5167,
              "velocity": 42
            },
            {
              "pitch": 51,
              "beatStart": 1.55,
              "velocity": 73
            },
            {
              "pitch": 21,
              "beatStart": 2.9083,
              "velocity": 57
            },
            {
              "pitch": 36,
              "beatStart": 2.9167,
              "velocity": 58
            },
            {
              "pitch": 51,
              "beatStart": 2.9333,
              "velocity": 87
            },
            {
              "pitch": 51,
              "beatStart": 3.9833,
              "velocity": 51
            }
          ],
          [
            {
              "pitch": 38,
              "beatStart": 0.5833,
              "velocity": 46
            },
            {
              "pitch": 51,
              "beatStart": 0.5833,
              "velocity": 92
            },
            {
              "pitch": 21,
              "beatStart": 0.925,
              "velocity": 57
            },
            {
              "pitch": 38,
              "beatStart": 1.9833,
              "velocity": 44
            },
            {
              "pitch": 51,
              "beatStart": 1.9917,
              "velocity": 84
            },
            {
              "pitch": 21,
              "beatStart": 2.925,
              "velocity": 57
            },
            {
              "pitch": 51,
              "beatStart": 2.9667,
              "velocity": 63
            },
            {
              "pitch": 48,
              "beatStart": 3.9583,
              "velocity": 74
            },
            {
              "pitch": 51,
              "beatStart": 3.9667,
              "velocity": 66
            }
          ],
          [
            {
              "pitch": 21,
              "beatStart": 0.9417,
              "velocity": 61
            },
            {
              "pitch": 82,
              "beatStart": 0.9417,
              "velocity": 68
            },
            {
              "pitch": 51,
              "beatStart": 0.95,
              "velocity": 71
            },
            {
              "pitch": 51,
              "beatStart": 1.9333,
              "velocity": 59
            },
            {
              "pitch": 21,
              "beatStart": 2.9417,
              "velocity": 53
            },
            {
              "pitch": 36,
              "beatStart": 2.9667,
              "velocity": 37
            },
            {
              "pitch": 51,
              "beatStart": 2.9667,
              "velocity": 52
            },
            {
              "pitch": 36,
              "beatStart": 3.55,
              "velocity": 64
            },
            {
              "pitch": 51,
              "beatStart": 3.5667,
              "velocity": 71
            }
          ],
          [
            {
              "pitch": 21,
              "beatStart": 0.9083,
              "velocity": 61
            },
            {
              "pitch": 51,
              "beatStart": 0.9417,
              "velocity": 59
            },
            {
              "pitch": 51,
              "beatStart": 1.9417,
              "velocity": 75
            },
            {
              "pitch": 38,
              "beatStart": 1.9583,
              "velocity": 69
            },
            {
              "pitch": 21,
              "beatStart": 2.925,
              "velocity": 53
            },
            {
              "pitch": 51,
              "beatStart": 2.9667,
              "velocity": 56
            },
            {
              "pitch": 38,
              "beatStart": 3.5833,
              "velocity": 67
            },
            {
              "pitch": 51,
              "beatStart": 3.5833,
              "velocity": 69
            },
            {
              "pitch": 38,
              "beatStart": 3.725,
              "velocity": 46
            },
            {
              "pitch": 38,
              "beatStart": 3.85,
              "velocity": 30
            },
            {
              "pitch": 38,
              "beatStart": 3.9667,
              "velocity": 29
            }
          ],
          [
            {
              "pitch": 38,
              "beatStart": 0.0667,
              "velocity": 23
            },
            {
              "pitch": 38,
              "beatStart": 0.15,
              "velocity": 17
            },
            {
              "pitch": 51,
              "beatStart": 0.5917,
              "velocity": 46
            },
            {
              "pitch": 36,
              "beatStart": 0.9583,
              "velocity": 67
            },
            {
              "pitch": 21,
              "beatStart": 0.975,
              "velocity": 57
            },
            {
              "pitch": 51,
              "beatStart": 0.9917,
              "velocity": 66
            },
            {
              "pitch": 51,
              "beatStart": 1.9667,
              "velocity": 48
            },
            {
              "pitch": 51,
              "beatStart": 2.55,
              "velocity": 92
            },
            {
              "pitch": 38,
              "beatStart": 2.5583,
              "velocity": 62
            },
            {
              "pitch": 21,
              "beatStart": 2.9083,
              "velocity": 53
            },
            {
              "pitch": 38,
              "beatStart": 3.6167,
              "velocity": 32
            },
            {
              "pitch": 51,
              "beatStart": 3.95,
              "velocity": 70
            }
          ],
          [
            {
              "pitch": 51,
              "beatStart": 0.5667,
              "velocity": 57
            },
            {
              "pitch": 38,
              "beatStart": 0.5833,
              "velocity": 29
            },
            {
              "pitch": 21,
              "beatStart": 0.9167,
              "velocity": 57
            },
            {
              "pitch": 38,
              "beatStart": 0.95,
              "velocity": 31
            },
            {
              "pitch": 51,
              "beatStart": 0.95,
              "velocity": 63
            },
            {
              "pitch": 36,
              "beatStart": 1.6,
              "velocity": 35
            },
            {
              "pitch": 36,
              "beatStart": 1.9833,
              "velocity": 60
            },
            {
              "pitch": 51,
              "beatStart": 1.9833,
              "velocity": 74
            },
            {
              "pitch": 21,
              "beatStart": 2.9417,
              "velocity": 57
            },
            {
              "pitch": 51,
              "beatStart": 2.9667,
              "velocity": 49
            },
            {
              "pitch": 116,
              "beatStart": 3.55,
              "velocity": 79
            },
            {
              "pitch": 40,
              "beatStart": 3.5583,
              "velocity": 68
            }
          ],
          [
            {
              "pitch": 38,
              "beatStart": 0.575,
              "velocity": 38
            },
            {
              "pitch": 21,
              "beatStart": 0.9167,
              "velocity": 64
            },
            {
              "pitch": 51,
              "beatStart": 0.9333,
              "velocity": 70
            },
            {
              "pitch": 51,
              "beatStart": 1.5667,
              "velocity": 51
            },
            {
              "pitch": 51,
              "beatStart": 1.9333,
              "velocity": 59
            },
            {
              "pitch": 36,
              "beatStart": 2.4917,
              "velocity": 29
            },
            {
              "pitch": 36,
              "beatStart": 2.9167,
              "velocity": 67
            },
            {
              "pitch": 60,
              "beatStart": 2.9167,
              "velocity": 76
            },
            {
              "pitch": 59,
              "beatStart": 2.9333,
              "velocity": 75
            }
          ]
        ]
      },
      {
        "id": "up-tempo-swing_2",
        "measures": [
          [
            {
              "pitch": 51,
              "beatStart": 0.0,
              "velocity": 66
            },
            {
              "pitch": 38,
              "beatStart": 0.525,
              "velocity": 57
            },
            {
              "pitch": 21,
              "beatStart": 0.9,
              "velocity": 61
            },
            {
              "pitch": 51,
              "beatStart": 0.9583,
              "velocity": 71
            },
            {
              "pitch": 51,
              "beatStart": 1.5333,
              "velocity": 51
            },
            {
              "pitch": 48,
              "beatStart": 1.9583,
              "velocity": 76
            },
            {
              "pitch": 51,
              "beatStart": 1.9583,
              "velocity": 65
            },
            {
              "pitch": 48,
              "beatStart": 2.5833,
              "velocity": 54
            },
            {
              "pitch": 21,
              "beatStart": 2.8917,
              "velocity": 57
            },
            {
              "pitch": 51,
              "beatStart": 2.9583,
              "velocity": 65
            },
            {
              "pitch": 51,
              "beatStart": 3.5167,
              "velocity": 48
            },
            {
              "pitch": 38,
              "beatStart": 3.9333,
              "velocity": 50
            },
            {
              "pitch": 51,
              "beatStart": 3.9333,
              "velocity": 64
            }
          ],
          [
            {
              "pitch": 21,
              "beatStart": 0.9333,
              "velocity": 53
            },
            {
              "pitch": 36,
              "beatStart": 0.9417,
              "velocity": 48
            },
            {
              "pitch": 51,
              "beatStart": 0.95,
              "velocity": 71
            },
            {
              "pitch": 36,
              "beatStart": 1.925,
              "velocity": 43
            },
            {
              "pitch": 51,
              "beatStart": 1.9417,
              "velocity": 63
            },
            {
              "pitch": 21,
              "beatStart": 2.9,
              "velocity": 61
            },
            {
              "pitch": 38,
              "beatStart": 2.9167,
              "velocity": 40
            },
            {
              "pitch": 51,
              "beatStart": 2.9167,
              "velocity": 66
            },
            {
              "pitch": 36,
              "beatStart": 3.475,
              "velocity": 58
            },
            {
              "pitch": 51,
              "beatStart": 3.5083,
              "velocity": 86
            }
          ],
          [
            {
              "pitch": 21,
              "beatStart": 0.8417,
              "velocity": 64
            },
            {
              "pitch": 51,
              "beatStart": 0.8583,
              "velocity": 68
            },
            {
              "pitch": 38,
              "beatStart": 1.4583,
              "velocity": 50
            },
            {
              "pitch": 51,
              "beatStart": 1.4667,
              "velocity": 80
            },
            {
              "pitch": 21,
              "beatStart": 2.8417,
              "velocity": 64
            },
            {
              "pitch": 82,
              "beatStart": 2.8667,
              "velocity": 73
            },
            {
              "pitch": 116,
              "beatStart": 2.8667,
              "velocity": 81
            },
            {
              "pitch": 51,
              "beatStart": 3.8417,
              "velocity": 55
            }
          ],
          [
            {
              "pitch": 36,
              "beatStart": 0.4583,
              "velocity": 48
            },
            {
              "pitch": 51,
              "beatStart": 0.4667,
              "velocity": 68
            },
            {
              "pitch": 21,
              "beatStart": 0.8333,
              "velocity": 53
            },
            {
              "pitch": 36,
              "beatStart": 1.9,
              "velocity": 55
            },
            {
              "pitch": 51,
              "beatStart": 1.9,
              "velocity": 77
            },
            {
              "pitch": 21,
              "beatStart": 2.8667,
              "velocity": 53
            },
            {
              "pitch": 51,
              "beatStart": 2.925,
              "velocity": 57
            },
            {
              "pitch": 36,
              "beatStart": 3.5,
              "velocity": 48
            },
            {
              "pitch": 51,
              "beatStart": 3.5083,
              "velocity": 88
            }
          ],
          [
            {
              "pitch": 38,
              "beatStart": 0.55,
              "velocity": 38
            },
            {
              "pitch": 21,
              "beatStart": 0.8917,
              "velocity": 64
            },
            {
              "pitch": 51,
              "beatStart": 0.9583,
              "velocity": 73
            },
            {
              "pitch": 38,
              "beatStart": 1.525,
              "velocity": 30
            },
            {
              "pitch": 51,
              "beatStart": 1.5583,
              "velocity": 56
            },
            {
              "pitch": 38,
              "beatStart": 1.95,
              "velocity": 33
            },
            {
              "pitch": 51,
              "beatStart": 1.95,
              "velocity": 59
            },
            {
              "pitch": 36,
              "beatStart": 2.5333,
              "velocity": 59
            },
            {
              "pitch": 51,
              "beatStart": 2.5583,
              "velocity": 82
            },
            {
              "pitch": 21,
              "beatStart": 2.8667,
              "velocity": 57
            },
            {
              "pitch": 38,
              "beatStart": 3.5333,
              "velocity": 34
            },
            {
              "pitch": 51,
              "beatStart": 3.9083,
              "velocity": 63
            }
          ],
          [
            {
              "pitch": 38,
              "beatStart": 0.5,
              "velocity": 31
            },
            {
              "pitch": 51,
              "beatStart": 0.5083,
              "velocity": 56
            },
            {
              "pitch": 21,
              "beatStart": 0.8917,
              "velocity": 61
            },
            {
              "pitch": 38,
              "beatStart": 0.9083,
              "velocity": 32
            },
            {
              "pitch": 51,
              "beatStart": 0.9083,
              "velocity": 62
            },
            {
              "pitch": 38,
              "beatStart": 1.9167,
              "velocity": 64
            },
            {
              "pitch": 51,
              "beatStart": 1.9167,
              "velocity": 77
            },
            {
              "pitch": 21,
              "beatStart": 2.8833,
              "velocity": 64
            },
            {
              "pitch": 51,
              "beatStart": 2.9,
              "velocity": 52
            },
            {
              "pitch": 48,
              "beatStart": 3.5083,
              "velocity": 70
            },
            {
              "pitch": 116,
              "beatStart": 3.5167,
              "velocity": 78
            }
          ],
          [
            {
              "pitch": 51,
              "beatStart": 0.5667,
              "velocity": 55
            },
            {
              "pitch": 21,
              "beatStart": 0.9,
              "velocity": 61
            },
            {
              "pitch": 51,
              "beatStart": 0.9333,
              "velocity": 62
            },
            {
              "pitch": 38,
              "beatStart": 1.5333,
              "velocity": 45
            },
            {
              "pitch": 51,
              "beatStart": 1.9167,
              "velocity": 59
            },
            {
              "pitch": 36,
              "beatStart": 2.4833,
              "velocity": 45
            },
            {
              "pitch": 51,
              "beatStart": 2.4833,
              "velocity": 62
            },
            {
              "pitch": 21,
              "beatStart": 2.8583,
              "velocity": 64
            },
            {
              "pitch": 38,
              "beatStart": 2.9,
              "velocity": 30
            },
            {
              "pitch": 36,
              "beatStart": 3.5333,
              "velocity": 60
            },
            {
              "pitch": 51,
              "beatStart": 3.9,
              "velocity": 78
            }
          ],
          [
            {
              "pitch": 38,
              "beatStart": 0.4833,
              "velocity": 32
            },
            {
              "pitch": 21,
              "beatStart": 0.85,
              "velocity": 64
            },
            {
              "pitch": 51,
              "beatStart": 0.875,
              "velocity": 48
            },
            {
              "pitch": 51,
              "beatStart": 1.45,
              "velocity": 82
            },
            {
              "pitch": 38,
              "beatStart": 1.4667,
              "velocity": 82
            },
            {
              "pitch": 48,
              "beatStart": 2.45,
              "velocity": 84
            },
            {
              "pitch": 21,
              "beatStart": 2.8167,
              "velocity": 64
            },
            {
              "pitch": 51,
              "beatStart": 2.8917,
              "velocity": 57
            },
            {
              "pitch": 36,
              "beatStart": 3.425,
              "velocity": 82
            },
            {
              "pitch": 59,
              "beatStart": 3.4333,
              "velocity": 105
            }
          ]
        ]
      },
      {
        "id": "up-tempo-swing_3",
        "measures": [
          [
            {
              "pitch": 51,
              "beatStart": 0.0,
              "velocity": 67
            },
            {
              "pitch": 38,
              "beatStart": 0.5417,
              "velocity": 70
            },
            {
              "pitch": 51,
              "beatStart": 0.9333,
              "velocity": 71
            },
            {
              "pitch": 21,
              "beatStart": 0.95,
              "velocity": 64
            },
            {
              "pitch": 51,
              "beatStart": 1.5417,
              "velocity": 52
            },
            {
              "pitch": 51,
              "beatStart": 1.9,
              "velocity": 69
            },
            {
              "pitch": 48,
              "beatStart": 1.9167,
              "velocity": 86
            },
            {
              "pitch": 51,
              "beatStart": 2.9,
              "velocity": 63
            },
            {
              "pitch": 21,
              "beatStart": 2.9167,
              "velocity": 61
            },
            {
              "pitch": 36,
              "beatStart": 3.5083,
              "velocity": 54
            },
            {
              "pitch": 51,
              "beatStart": 3.5167,
              "velocity": 94
            }
          ],
          [
            {
              "pitch": 51,
              "beatStart": 0.8917,
              "velocity": 69
            },
            {
              "pitch": 21,
              "beatStart": 0.9167,
              "velocity": 64
            },
            {
              "pitch": 38,
              "beatStart": 1.475,
              "velocity": 72
            },
            {
              "pitch": 51,
              "beatStart": 1.475,
              "velocity": 83
            },
            {
              "pitch": 43,
              "beatStart": 2.875,
              "velocity": 72
            },
            {
              "pitch": 21,
              "beatStart": 2.8833,
              "velocity": 69
            },
            {
              "pitch": 51,
              "beatStart": 2.8917,
              "velocity": 84
            },
            {
              "pitch": 51,
              "beatStart": 3.9,
              "velocity": 58
            }
          ],
          [
            {
              "pitch": 36,
              "beatStart": 0.5083,
              "velocity": 51
            },
            {
              "pitch": 51,
              "beatStart": 0.5167,
              "velocity": 74
            },
            {
              "pitch": 21,
              "beatStart": 0.9167,
              "velocity": 64
            },
            {
              "pitch": 38,
              "beatStart": 1.5333,
              "velocity": 28
            },
            {
              "pitch": 51,
              "beatStart": 1.9167,
              "velocity": 85
            },
            {
              "pitch": 38,
              "beatStart": 2.55,
              "velocity": 26
            },
            {
              "pitch": 51,
              "beatStart": 2.55,
              "velocity": 57
            },
            {
              "pitch": 21,
              "beatStart": 2.9083,
              "velocity": 64
            },
            {
              "pitch": 51,
              "beatStart": 2.925,
              "velocity": 64
            },
            {
              "pitch": 38,
              "beatStart": 2.9333,
              "velocity": 29
            },
            {
              "pitch": 36,
              "beatStart": 3.5167,
              "velocity": 41
            },
            {
              "pitch": 51,
              "beatStart": 3.525,
              "velocity": 74
            }
          ],
          [
            {
              "pitch": 38,
              "beatStart": 0.4583,
              "velocity": 34
            },
            {
              "pitch": 51,
              "beatStart": 0.9333,
              "velocity": 71
            },
            {
              "pitch": 21,
              "beatStart": 0.95,
              "velocity": 64
            },
            {
              "pitch": 51,
              "beatStart": 1.5583,
              "velocity": 60
            },
            {
              "pitch": 51,
              "beatStart": 1.95,
              "velocity": 64
            },
            {
              "pitch": 48,
              "beatStart": 1.9667,
              "velocity": 75
            },
            {
              "pitch": 48,
              "beatStart": 2.575,
              "velocity": 63
            },
            {
              "pitch": 21,
              "beatStart": 2.9,
              "velocity": 69
            },
            {
              "pitch": 51,
              "beatStart": 2.9667,
              "velocity": 52
            },
            {
              "pitch": 51,
              "beatStart": 3.5583,
              "velocity": 111
            },
            {
              "pitch": 36,
              "beatStart": 3.5667,
              "velocity": 68
            }
          ],
          [
            {
              "pitch": 51,
              "beatStart": 0.9167,
              "velocity": 45
            },
            {
              "pitch": 21,
              "beatStart": 0.9333,
              "velocity": 69
            },
            {
              "pitch": 38,
              "beatStart": 1.5167,
              "velocity": 75
            },
            {
              "pitch": 51,
              "beatStart": 1.5417,
              "velocity": 79
            },
            {
              "pitch": 38,
              "beatStart": 2.5583,
              "velocity": 27
            },
            {
              "pitch": 21,
              "beatStart": 2.9583,
              "velocity": 64
            },
            {
              "pitch": 51,
              "beatStart": 2.9833,
              "velocity": 68
            },
            {
              "pitch": 38,
              "beatStart": 3.55,
              "velocity": 36
            },
            {
              "pitch": 51,
              "beatStart": 3.5833,
              "velocity": 57
            },
            {
              "pitch": 51,
              "beatStart": 3.975,
              "velocity": 61
            }
          ],
          [
            {
              "pitch": 38,
              "beatStart": 0.0083,
              "velocity": 34
            },
            {
              "pitch": 21,
              "beatStart": 0.95,
              "velocity": 64
            },
            {
              "pitch": 36,
              "beatStart": 0.9833,
              "velocity": 38
            },
            {
              "pitch": 116,
              "beatStart": 1.0167,
              "velocity": 76
            },
            {
              "pitch": 36,
              "beatStart": 1.975,
              "velocity": 53
            },
            {
              "pitch": 116,
              "beatStart": 1.9917,
              "velocity": 90
            },
            {
              "pitch": 21,
              "beatStart": 2.9083,
              "velocity": 64
            },
            {
              "pitch": 38,
              "beatStart": 2.9583,
              "velocity": 61
            },
            {
              "pitch": 36,
              "beatStart": 3.5083,
              "velocity": 61
            },
            {
              "pitch": 59,
              "beatStart": 3.525,
              "velocity": 69
            }
          ],
          [
            {
              "pitch": 38,
              "beatStart": 0.525,
              "velocity": 38
            },
            {
              "pitch": 51,
              "beatStart": 0.9333,
              "velocity": 64
            },
            {
              "pitch": 21,
              "beatStart": 0.95,
              "velocity": 69
            },
            {
              "pitch": 38,
              "beatStart": 1.5333,
              "velocity": 30
            },
            {
              "pitch": 51,
              "beatStart": 1.5417,
              "velocity": 59
            },
            {
              "pitch": 51,
              "beatStart": 1.9,
              "velocity": 56
            },
            {
              "pitch": 38,
              "beatStart": 1.9167,
              "velocity": 30
            },
            {
              "pitch": 36,
              "beatStart": 2.4917,
              "velocity": 29
            },
            {
              "pitch": 36,
              "beatStart": 2.9333,
              "velocity": 66
            },
            {
              "pitch": 59,
              "beatStart": 2.9417,
              "velocity": 74
            },
            {
              "pitch": 21,
              "beatStart": 2.95,
              "velocity": 57
            },
            {
              "pitch": 38,
              "beatStart": 3.5333,
              "velocity": 30
            },
            {
              "pitch": 51,
              "beatStart": 3.9083,
              "velocity": 49
            }
          ],
          [
            {
              "pitch": 51,
              "beatStart": 0.5167,
              "velocity": 105
            },
            {
              "pitch": 40,
              "beatStart": 0.5333,
              "velocity": 66
            },
            {
              "pitch": 21,
              "beatStart": 0.9,
              "velocity": 69
            },
            {
              "pitch": 38,
              "beatStart": 1.55,
              "velocity": 32
            },
            {
              "pitch": 51,
              "beatStart": 1.9083,
              "velocity": 74
            },
            {
              "pitch": 38,
              "beatStart": 2.5,
              "velocity": 43
            },
            {
              "pitch": 51,
              "beatStart": 2.5,
              "velocity": 54
            },
            {
              "pitch": 21,
              "beatStart": 2.875,
              "velocity": 64
            },
            {
              "pitch": 38,
              "beatStart": 2.8917,
              "velocity": 61
            },
            {
              "pitch": 51,
              "beatStart": 2.9167,
              "velocity": 65
            },
            {
              "pitch": 36,
              "beatStart": 3.4417,
              "velocity": 80
            },
            {
              "pitch": 59,
              "beatStart": 3.45,
              "velocity": 101
            }
          ]
        ]
      },
      {
        "id": "up-tempo-swing_4",
        "measures": [
          [
            {
              "pitch": 51,
              "beatStart": 0.0,
              "velocity": 55
            },
            {
              "pitch": 38,
              "beatStart": 0.5583,
              "velocity": 41
            },
            {
              "pitch": 21,
              "beatStart": 0.95,
              "velocity": 69
            },
            {
              "pitch": 51,
              "beatStart": 0.9833,
              "velocity": 69
            },
            {
              "pitch": 51,
              "beatStart": 1.6083,
              "velocity": 50
            },
            {
              "pitch": 38,
              "beatStart": 1.95,
              "velocity": 41
            },
            {
              "pitch": 51,
              "beatStart": 1.9583,
              "velocity": 62
            },
            {
              "pitch": 21,
              "beatStart": 2.55,
              "velocity": 69
            },
            {
              "pitch": 51,
              "beatStart": 2.9917,
              "velocity": 68
            },
            {
              "pitch": 38,
              "beatStart": 3.55,
              "velocity": 42
            },
            {
              "pitch": 51,
              "beatStart": 3.575,
              "velocity": 63
            },
            {
              "pitch": 51,
              "beatStart": 3.975,
              "velocity": 48
            }
          ],
          [
            {
              "pitch": 21,
              "beatStart": 0.5,
              "velocity": 64
            },
            {
              "pitch": 38,
              "beatStart": 0.9167,
              "velocity": 52
            },
            {
              "pitch": 51,
              "beatStart": 0.925,
              "velocity": 79
            },
            {
              "pitch": 51,
              "beatStart": 1.5167,
              "velocity": 51
            },
            {
              "pitch": 21,
              "beatStart": 1.95,
              "velocity": 64
            },
            {
              "pitch": 51,
              "beatStart": 1.95,
              "velocity": 52
            },
            {
              "pitch": 48,
              "beatStart": 2.6,
              "velocity": 92
            },
            {
              "pitch": 51,
              "beatStart": 2.9833,
              "velocity": 44
            },
            {
              "pitch": 51,
              "beatStart": 3.575,
              "velocity": 69
            },
            {
              "pitch": 36,
              "beatStart": 3.5833,
              "velocity": 58
            }
          ],
          [
            {
              "pitch": 38,
              "beatStart": 0.5667,
              "velocity": 29
            },
            {
              "pitch": 21,
              "beatStart": 0.9083,
              "velocity": 64
            },
            {
              "pitch": 51,
              "beatStart": 0.95,
              "velocity": 66
            },
            {
              "pitch": 38,
              "beatStart": 1.5167,
              "velocity": 29
            },
            {
              "pitch": 51,
              "beatStart": 1.5667,
              "velocity": 54
            },
            {
              "pitch": 38,
              "beatStart": 1.925,
              "velocity": 32
            },
            {
              "pitch": 51,
              "beatStart": 1.925,
              "velocity": 52
            },
            {
              "pitch": 36,
              "beatStart": 2.9333,
              "velocity": 64
            },
            {
              "pitch": 59,
              "beatStart": 2.9583,
              "velocity": 84
            },
            {
              "pitch": 21,
              "beatStart": 3.9167,
              "velocity": 57
            },
            {
              "pitch": 51,
              "beatStart": 3.9417,
              "velocity": 47
            }
          ],
          [
            {
              "pitch": 38,
              "beatStart": 0.9417,
              "velocity": 82
            },
            {
              "pitch": 51,
              "beatStart": 0.9417,
              "velocity": 73
            },
            {
              "pitch": 51,
              "beatStart": 1.55,
              "velocity": 48
            },
            {
              "pitch": 36,
              "beatStart": 1.925,
              "velocity": 61
            },
            {
              "pitch": 51,
              "beatStart": 1.9667,
              "velocity": 59
            },
            {
              "pitch": 82,
              "beatStart": 2.575,
              "velocity": 86
            },
            {
              "pitch": 21,
              "beatStart": 2.9417,
              "velocity": 57
            },
            {
              "pitch": 51,
              "beatStart": 3.0083,
              "velocity": 45
            },
            {
              "pitch": 36,
              "beatStart": 3.5583,
              "velocity": 56
            },
            {
              "pitch": 116,
              "beatStart": 3.575,
              "velocity": 90
            }
          ],
          [
            {
              "pitch": 38,
              "beatStart": 0.625,
              "velocity": 31
            },
            {
              "pitch": 21,
              "beatStart": 0.9917,
              "velocity": 64
            },
            {
              "pitch": 51,
              "beatStart": 1.0,
              "velocity": 62
            },
            {
              "pitch": 38,
              "beatStart": 1.5417,
              "velocity": 28
            },
            {
              "pitch": 51,
              "beatStart": 1.5417,
              "velocity": 53
            },
            {
              "pitch": 38,
              "beatStart": 1.9667,
              "velocity": 30
            },
            {
              "pitch": 51,
              "beatStart": 1.9667,
              "velocity": 57
            },
            {
              "pitch": 36,
              "beatStart": 2.9333,
              "velocity": 45
            },
            {
              "pitch": 51,
              "beatStart": 2.9667,
              "velocity": 91
            },
            {
              "pitch": 36,
              "beatStart": 3.9583,
              "velocity": 58
            },
            {
              "pitch": 59,
              "beatStart": 3.9917,
              "velocity": 66
            }
          ],
          [
            {
              "pitch": 21,
              "beatStart": 0.9667,
              "velocity": 69
            },
            {
              "pitch": 38,
              "beatStart": 0.9667,
              "velocity": 56
            },
            {
              "pitch": 59,
              "beatStart": 1.55,
              "velocity": 86
            },
            {
              "pitch": 36,
              "beatStart": 1.5583,
              "velocity": 56
            },
            {
              "pitch": 38,
              "beatStart": 2.6083,
              "velocity": 33
            },
            {
              "pitch": 21,
              "beatStart": 2.9583,
              "velocity": 64
            },
            {
              "pitch": 51,
              "beatStart": 3.0333,
              "velocity": 64
            },
            {
              "pitch": 38,
              "beatStart": 3.55,
              "velocity": 30
            },
            {
              "pitch": 51,
              "beatStart": 3.575,
              "velocity": 55
            },
            {
              "pitch": 38,
              "beatStart": 3.9917,
              "velocity": 35
            },
            {
              "pitch": 51,
              "beatStart": 3.9917,
              "velocity": 59
            }
          ],
          [
            {
              "pitch": 36,
              "beatStart": 0.625,
              "velocity": 32
            },
            {
              "pitch": 36,
              "beatStart": 0.9833,
              "velocity": 71
            },
            {
              "pitch": 59,
              "beatStart": 1.0,
              "velocity": 90
            },
            {
              "pitch": 60,
              "beatStart": 1.0,
              "velocity": 95
            },
            {
              "pitch": 51,
              "beatStart": 1.9833,
              "velocity": 57
            },
            {
              "pitch": 21,
              "beatStart": 2.95,
              "velocity": 61
            },
            {
              "pitch": 40,
              "beatStart": 2.9583,
              "velocity": 90
            },
            {
              "pitch": 51,
              "beatStart": 2.9667,
              "velocity": 70
            },
            {
              "pitch": 51,
              "beatStart": 3.5417,
              "velocity": 56
            },
            {
              "pitch": 51,
              "beatStart": 3.9167,
              "velocity": 59
            }
          ],
          [
            {
              "pitch": 48,
              "beatStart": 0.5167,
              "velocity": 80
            },
            {
              "pitch": 21,
              "beatStart": 0.9167,
              "velocity": 57
            },
            {
              "pitch": 43,
              "beatStart": 0.9833,
              "velocity": 84
            },
            {
              "pitch": 51,
              "beatStart": 1.5,
              "velocity": 59
            },
            {
              "pitch": 36,
              "beatStart": 1.55,
              "velocity": 56
            },
            {
              "pitch": 38,
              "beatStart": 1.9583,
              "velocity": 64
            },
            {
              "pitch": 36,
              "beatStart": 2.5083,
              "velocity": 54
            },
            {
              "pitch": 51,
              "beatStart": 2.9917,
              "velocity": 73
            },
            {
              "pitch": 36,
              "beatStart": 3.5583,
              "velocity": 81
            },
            {
              "pitch": 59,
              "beatStart": 3.575,
              "velocity": 111
            }
          ]
        ]
      }
    ]
  },
  "samples": {
    "bop-sticks-dry": {
      "21": [
        27,
        35,
        43,
        51,
        59,
        67,
        73
      ],
      "29": [
        61,
        69,
        77,
        85,
        93,
        101,
        102
      ],
      "36": [
        21,
        29,
        37,
        45,
        53,
        61,
        69,
        77,
        85,
        93,
        98
      ],
      "38": [
        4,
        12,
        20,
        28,
        36,
        44,
        52,
        60,
        68,
        76,
        84,
        87
      ],
      "40": [
        55,
        63,
        71,
        79,
        87,
        95,
        97
      ],
      "43": [
        35,
        43,
        51,
        59,
        67,
        75,
        83,
        84
      ],
      "48": [
        49,
        57,
        65,
        73,
        81,
        89,
        92
      ],
      "51": [
        35,
        43,
        51,
        59,
        67,
        75,
        83,
        91,
        99,
        107,
        112
      ],
      "57": [
        78
      ],
      "59": [
        48,
        56,
        64,
        72,
        80,
        88,
        96,
        104,
        112,
        118
      ],
      "60": [
        72,
        80,
        88,
        95
      ],
      "67": [
        71,
        79,
        81
      ],
      "82": [
        59,
        67,
        75,
        83,
        91,
        92
      ],
      "116": [
        60,
        68,
        76,
        84,
        92,
        100
      ]
    }
  },
  "kits": {
    "medium-swing": "bop-sticks-dry",
    "medium-up-swing": "bop-sticks-dry",
    "medium-up-swing-2": "bop-sticks-dry",
    "up-tempo-swing": "bop-sticks-dry"
  }
}